<mxfile host="65bd71144e">
    <diagram id="fIZABJuP07ibnyfpWcSW" name="001. Introduction">
        <mxGraphModel dx="886" dy="830" grid="1" gridSize="10" guides="1" tooltips="1" connect="1" arrows="1" fold="1" page="1" pageScale="1" pageWidth="827" pageHeight="1169" math="0" shadow="0">
            <root>
                <mxCell id="0"/>
                <mxCell id="1" parent="0"/>
                <mxCell id="2" value="What are loops?" style="text;html=1;strokeColor=#666666;fillColor=#f5f5f5;align=center;verticalAlign=middle;whiteSpace=wrap;rounded=0;fontColor=#333333;fontStyle=1" parent="1" vertex="1">
                    <mxGeometry x="200" y="30" width="240" height="40" as="geometry"/>
                </mxCell>
                <mxCell id="4" value="&lt;span&gt;Any task that are performed repeatedly is know as loops.&lt;/span&gt;" style="rounded=0;whiteSpace=wrap;html=1;align=left;spacingLeft=8;" parent="1" vertex="1">
                    <mxGeometry x="200" y="70" width="400" height="40" as="geometry"/>
                </mxCell>
                <mxCell id="6" value="Individual repeation in loop is called as iteration" style="rounded=0;whiteSpace=wrap;html=1;align=left;spacingLeft=8;" parent="1" vertex="1">
                    <mxGeometry x="200" y="190" width="400" height="40" as="geometry"/>
                </mxCell>
                <mxCell id="7" value="What is a iteration?" style="text;html=1;strokeColor=#666666;fillColor=#f5f5f5;align=center;verticalAlign=middle;whiteSpace=wrap;rounded=0;fontColor=#333333;fontStyle=1" parent="1" vertex="1">
                    <mxGeometry x="200" y="150" width="240" height="40" as="geometry"/>
                </mxCell>
                <mxCell id="15" style="edgeStyle=orthogonalEdgeStyle;rounded=0;orthogonalLoop=1;jettySize=auto;html=1;exitX=0.25;exitY=1;exitDx=0;exitDy=0;endArrow=none;endFill=0;" parent="1" source="8" edge="1">
                    <mxGeometry relative="1" as="geometry">
                        <mxPoint x="320" y="550" as="targetPoint"/>
                    </mxGeometry>
                </mxCell>
                <mxCell id="8" value="Types of loop" style="rounded=0;whiteSpace=wrap;html=1;align=center;" parent="1" vertex="1">
                    <mxGeometry x="280" y="320" width="160" height="40" as="geometry"/>
                </mxCell>
                <mxCell id="16" style="edgeStyle=orthogonalEdgeStyle;rounded=0;orthogonalLoop=1;jettySize=auto;html=1;exitX=0;exitY=0.5;exitDx=0;exitDy=0;endArrow=none;endFill=0;startArrow=classic;startFill=1;" parent="1" source="9" edge="1">
                    <mxGeometry relative="1" as="geometry">
                        <mxPoint x="320" y="390" as="targetPoint"/>
                    </mxGeometry>
                </mxCell>
                <mxCell id="9" value="while statement" style="text;html=1;strokeColor=none;fillColor=none;align=left;verticalAlign=middle;whiteSpace=wrap;rounded=0;" parent="1" vertex="1">
                    <mxGeometry x="340" y="380" width="120" height="20" as="geometry"/>
                </mxCell>
                <mxCell id="18" style="edgeStyle=orthogonalEdgeStyle;rounded=0;orthogonalLoop=1;jettySize=auto;html=1;exitX=0;exitY=0.5;exitDx=0;exitDy=0;startArrow=classic;startFill=1;endArrow=none;endFill=0;" parent="1" source="10" edge="1">
                    <mxGeometry relative="1" as="geometry">
                        <mxPoint x="320" y="430" as="targetPoint"/>
                    </mxGeometry>
                </mxCell>
                <mxCell id="10" value="do while statement" style="text;html=1;strokeColor=none;fillColor=none;align=left;verticalAlign=middle;whiteSpace=wrap;rounded=0;" parent="1" vertex="1">
                    <mxGeometry x="340" y="420" width="120" height="20" as="geometry"/>
                </mxCell>
                <mxCell id="19" style="edgeStyle=orthogonalEdgeStyle;rounded=0;orthogonalLoop=1;jettySize=auto;html=1;exitX=0;exitY=0.5;exitDx=0;exitDy=0;startArrow=classic;startFill=1;endArrow=none;endFill=0;" parent="1" source="11" edge="1">
                    <mxGeometry relative="1" as="geometry">
                        <mxPoint x="320" y="470" as="targetPoint"/>
                    </mxGeometry>
                </mxCell>
                <mxCell id="11" value="for statement" style="text;html=1;strokeColor=none;fillColor=none;align=left;verticalAlign=middle;whiteSpace=wrap;rounded=0;" parent="1" vertex="1">
                    <mxGeometry x="340" y="460" width="120" height="20" as="geometry"/>
                </mxCell>
                <mxCell id="21" style="edgeStyle=orthogonalEdgeStyle;rounded=0;orthogonalLoop=1;jettySize=auto;html=1;exitX=0;exitY=0.5;exitDx=0;exitDy=0;startArrow=classic;startFill=1;endArrow=none;endFill=0;" parent="1" source="12" edge="1">
                    <mxGeometry relative="1" as="geometry">
                        <mxPoint x="320" y="510" as="targetPoint"/>
                    </mxGeometry>
                </mxCell>
                <mxCell id="12" value="for...in statement" style="text;html=1;strokeColor=none;fillColor=none;align=left;verticalAlign=middle;whiteSpace=wrap;rounded=0;" parent="1" vertex="1">
                    <mxGeometry x="340" y="500" width="120" height="20" as="geometry"/>
                </mxCell>
                <mxCell id="22" style="edgeStyle=orthogonalEdgeStyle;rounded=0;orthogonalLoop=1;jettySize=auto;html=1;exitX=0;exitY=0.5;exitDx=0;exitDy=0;startArrow=classic;startFill=1;endArrow=none;endFill=0;" parent="1" source="13" edge="1">
                    <mxGeometry relative="1" as="geometry">
                        <mxPoint x="320" y="550" as="targetPoint"/>
                    </mxGeometry>
                </mxCell>
                <mxCell id="13" value="for...of statement" style="text;html=1;strokeColor=none;fillColor=none;align=left;verticalAlign=middle;whiteSpace=wrap;rounded=0;" parent="1" vertex="1">
                    <mxGeometry x="340" y="540" width="120" height="20" as="geometry"/>
                </mxCell>
            </root>
        </mxGraphModel>
    </diagram>
    <diagram id="4TcF5MEM8DY4ZLKhlHg4" name="002. While &amp; Do while statement">
        <mxGraphModel dx="2940" dy="1290" grid="1" gridSize="10" guides="1" tooltips="1" connect="1" arrows="1" fold="1" page="1" pageScale="1" pageWidth="827" pageHeight="1169" math="0" shadow="0">
            <root>
                <mxCell id="6EpRcE3CcsVkOJeuyPvx-0"/>
                <mxCell id="6EpRcE3CcsVkOJeuyPvx-1" parent="6EpRcE3CcsVkOJeuyPvx-0"/>
                <mxCell id="6EpRcE3CcsVkOJeuyPvx-2" value="&lt;p style=&quot;line-height: 200%&quot;&gt;* When number of iteration is unknown or not fixed.&amp;nbsp;&lt;br&gt;* Number of iteration depends on conditions statement.&lt;br&gt;* while loop will continue, until provided condition fails&lt;/p&gt;" style="rounded=0;whiteSpace=wrap;html=1;align=left;spacingLeft=8;" vertex="1" parent="6EpRcE3CcsVkOJeuyPvx-1">
                    <mxGeometry x="200" y="120" width="520" height="120" as="geometry"/>
                </mxCell>
                <mxCell id="6EpRcE3CcsVkOJeuyPvx-3" value="&lt;span&gt;&lt;b&gt;When to use while and do while statement?&lt;/b&gt;&lt;/span&gt;" style="rounded=0;whiteSpace=wrap;html=1;align=center;fillColor=#f5f5f5;strokeColor=#666666;fontColor=#333333;" vertex="1" parent="6EpRcE3CcsVkOJeuyPvx-1">
                    <mxGeometry x="200" y="80" width="290" height="40" as="geometry"/>
                </mxCell>
                <mxCell id="Y0GFFbvNesOB-UwtTpIL-5" value="&lt;font style=&quot;font-size: 24px&quot;&gt;Now Let's check the syntax and code example for the same&lt;/font&gt;" style="text;html=1;strokeColor=none;fillColor=none;align=center;verticalAlign=middle;whiteSpace=wrap;rounded=0;" vertex="1" parent="6EpRcE3CcsVkOJeuyPvx-1">
                    <mxGeometry x="80" y="320" width="680" height="40" as="geometry"/>
                </mxCell>
            </root>
        </mxGraphModel>
    </diagram>
    <diagram id="e9Fv3xKqnHQYMtZBrAkV" name="003. break and continue">
        <mxGraphModel dx="882" dy="387" grid="1" gridSize="10" guides="1" tooltips="1" connect="1" arrows="1" fold="1" page="1" pageScale="1" pageWidth="827" pageHeight="1169" math="0" shadow="0">
            <root>
                <mxCell id="oIbaIzunk5wEsZa5FD68-0"/>
                <mxCell id="oIbaIzunk5wEsZa5FD68-1" parent="oIbaIzunk5wEsZa5FD68-0"/>
                <mxCell id="ZXe7oTptbrftOBVXXAb5-0" value="&lt;p style=&quot;line-height: 200%&quot;&gt;* break is a keyword in JS, which is used to stop loop.&lt;br&gt;* break immediately stop current iteration and no rather iteration will executate&lt;/p&gt;" style="rounded=0;whiteSpace=wrap;html=1;align=left;spacingLeft=8;" vertex="1" parent="oIbaIzunk5wEsZa5FD68-1">
                    <mxGeometry x="200" y="120" width="440" height="80" as="geometry"/>
                </mxCell>
                <mxCell id="ZXe7oTptbrftOBVXXAb5-1" value="&lt;span&gt;&lt;b&gt;break statement&lt;/b&gt;&lt;/span&gt;" style="rounded=0;whiteSpace=wrap;html=1;align=center;fillColor=#f5f5f5;strokeColor=#666666;fontColor=#333333;" vertex="1" parent="oIbaIzunk5wEsZa5FD68-1">
                    <mxGeometry x="200" y="80" width="280" height="40" as="geometry"/>
                </mxCell>
                <mxCell id="ZXe7oTptbrftOBVXXAb5-2" value="&lt;p style=&quot;line-height: 200%&quot;&gt;* continue is a keyword in JS, which is used to skip current iteration in a loop.&lt;br&gt;* this will skip current iteration, but will not break loop.&lt;/p&gt;" style="rounded=0;whiteSpace=wrap;html=1;align=left;spacingLeft=8;" vertex="1" parent="oIbaIzunk5wEsZa5FD68-1">
                    <mxGeometry x="200" y="320" width="440" height="80" as="geometry"/>
                </mxCell>
                <mxCell id="ZXe7oTptbrftOBVXXAb5-3" value="&lt;span&gt;&lt;b&gt;continue statement&lt;/b&gt;&lt;/span&gt;" style="rounded=0;whiteSpace=wrap;html=1;align=center;fillColor=#f5f5f5;strokeColor=#666666;fontColor=#333333;" vertex="1" parent="oIbaIzunk5wEsZa5FD68-1">
                    <mxGeometry x="200" y="280" width="280" height="40" as="geometry"/>
                </mxCell>
            </root>
        </mxGraphModel>
    </diagram>
    <diagram id="NDSCzXqlTmoSDq3BYP6e" name="004.indices">
        <mxGraphModel dx="1126" dy="860" grid="1" gridSize="10" guides="1" tooltips="1" connect="1" arrows="1" fold="1" page="1" pageScale="1" pageWidth="827" pageHeight="1169" math="0" shadow="0">
            <root>
                <mxCell id="5ZBPCBl7JyjE8Z1X_eLK-0"/>
                <mxCell id="5ZBPCBl7JyjE8Z1X_eLK-1" parent="5ZBPCBl7JyjE8Z1X_eLK-0"/>
                <mxCell id="V9dQcEgmOGx5oCRgF2Dt-0" value="location of an item in sequence of collection is known as index" style="rounded=0;whiteSpace=wrap;html=1;align=left;spacingLeft=8;" parent="5ZBPCBl7JyjE8Z1X_eLK-1" vertex="1">
                    <mxGeometry x="200" y="120" width="440" height="40" as="geometry"/>
                </mxCell>
                <mxCell id="V9dQcEgmOGx5oCRgF2Dt-1" value="&lt;span&gt;&lt;b&gt;What are index?&lt;/b&gt;&lt;/span&gt;" style="rounded=0;whiteSpace=wrap;html=1;align=center;fillColor=#f5f5f5;strokeColor=#666666;fontColor=#333333;" parent="5ZBPCBl7JyjE8Z1X_eLK-1" vertex="1">
                    <mxGeometry x="200" y="80" width="280" height="40" as="geometry"/>
                </mxCell>
                <mxCell id="V9dQcEgmOGx5oCRgF2Dt-2" value="Let's consider string &lt;b&gt;var str = &quot;prep bytes&quot;&lt;/b&gt;" style="text;html=1;align=center;verticalAlign=middle;whiteSpace=wrap;rounded=0;fillColor=#ffe6cc;strokeColor=#d79b00;" parent="5ZBPCBl7JyjE8Z1X_eLK-1" vertex="1">
                    <mxGeometry x="200" y="200" width="280" height="40" as="geometry"/>
                </mxCell>
                <mxCell id="V9dQcEgmOGx5oCRgF2Dt-3" value="p" style="whiteSpace=wrap;html=1;aspect=fixed;fillColor=#ffffff;align=center;verticalAlign=middle;" parent="5ZBPCBl7JyjE8Z1X_eLK-1" vertex="1">
                    <mxGeometry x="200" y="320" width="40" height="40" as="geometry"/>
                </mxCell>
                <mxCell id="V9dQcEgmOGx5oCRgF2Dt-21" value="r" style="whiteSpace=wrap;html=1;aspect=fixed;fillColor=#ffffff;align=center;verticalAlign=middle;" parent="5ZBPCBl7JyjE8Z1X_eLK-1" vertex="1">
                    <mxGeometry x="240" y="320" width="40" height="40" as="geometry"/>
                </mxCell>
                <mxCell id="V9dQcEgmOGx5oCRgF2Dt-22" value="e" style="whiteSpace=wrap;html=1;aspect=fixed;fillColor=#ffffff;align=center;verticalAlign=middle;" parent="5ZBPCBl7JyjE8Z1X_eLK-1" vertex="1">
                    <mxGeometry x="280" y="320" width="40" height="40" as="geometry"/>
                </mxCell>
                <mxCell id="V9dQcEgmOGx5oCRgF2Dt-23" value="p" style="whiteSpace=wrap;html=1;aspect=fixed;fillColor=#ffffff;align=center;verticalAlign=middle;" parent="5ZBPCBl7JyjE8Z1X_eLK-1" vertex="1">
                    <mxGeometry x="320" y="320" width="40" height="40" as="geometry"/>
                </mxCell>
                <mxCell id="V9dQcEgmOGx5oCRgF2Dt-24" value="" style="whiteSpace=wrap;html=1;aspect=fixed;fillColor=#ffffff;align=center;verticalAlign=middle;" parent="5ZBPCBl7JyjE8Z1X_eLK-1" vertex="1">
                    <mxGeometry x="360" y="320" width="40" height="40" as="geometry"/>
                </mxCell>
                <mxCell id="V9dQcEgmOGx5oCRgF2Dt-25" value="b" style="whiteSpace=wrap;html=1;aspect=fixed;fillColor=#ffffff;align=center;verticalAlign=middle;" parent="5ZBPCBl7JyjE8Z1X_eLK-1" vertex="1">
                    <mxGeometry x="400" y="320" width="40" height="40" as="geometry"/>
                </mxCell>
                <mxCell id="V9dQcEgmOGx5oCRgF2Dt-26" value="y" style="whiteSpace=wrap;html=1;aspect=fixed;fillColor=#ffffff;align=center;verticalAlign=middle;" parent="5ZBPCBl7JyjE8Z1X_eLK-1" vertex="1">
                    <mxGeometry x="440" y="320" width="40" height="40" as="geometry"/>
                </mxCell>
                <mxCell id="V9dQcEgmOGx5oCRgF2Dt-27" value="t" style="whiteSpace=wrap;html=1;aspect=fixed;fillColor=#ffffff;align=center;verticalAlign=middle;" parent="5ZBPCBl7JyjE8Z1X_eLK-1" vertex="1">
                    <mxGeometry x="480" y="320" width="40" height="40" as="geometry"/>
                </mxCell>
                <mxCell id="V9dQcEgmOGx5oCRgF2Dt-28" value="e" style="whiteSpace=wrap;html=1;aspect=fixed;fillColor=#ffffff;align=center;verticalAlign=middle;" parent="5ZBPCBl7JyjE8Z1X_eLK-1" vertex="1">
                    <mxGeometry x="520" y="320" width="40" height="40" as="geometry"/>
                </mxCell>
                <mxCell id="V9dQcEgmOGx5oCRgF2Dt-29" value="s" style="whiteSpace=wrap;html=1;aspect=fixed;fillColor=#ffffff;align=center;verticalAlign=middle;" parent="5ZBPCBl7JyjE8Z1X_eLK-1" vertex="1">
                    <mxGeometry x="560" y="320" width="40" height="40" as="geometry"/>
                </mxCell>
                <mxCell id="V9dQcEgmOGx5oCRgF2Dt-32" value="0" style="text;html=1;strokeColor=none;fillColor=none;align=center;verticalAlign=middle;whiteSpace=wrap;rounded=0;" parent="5ZBPCBl7JyjE8Z1X_eLK-1" vertex="1">
                    <mxGeometry x="200" y="360" width="40" height="40" as="geometry"/>
                </mxCell>
                <mxCell id="V9dQcEgmOGx5oCRgF2Dt-33" value="1" style="text;html=1;strokeColor=none;fillColor=none;align=center;verticalAlign=middle;whiteSpace=wrap;rounded=0;" parent="5ZBPCBl7JyjE8Z1X_eLK-1" vertex="1">
                    <mxGeometry x="240" y="360" width="40" height="40" as="geometry"/>
                </mxCell>
                <mxCell id="V9dQcEgmOGx5oCRgF2Dt-34" value="2" style="text;html=1;strokeColor=none;fillColor=none;align=center;verticalAlign=middle;whiteSpace=wrap;rounded=0;" parent="5ZBPCBl7JyjE8Z1X_eLK-1" vertex="1">
                    <mxGeometry x="280" y="360" width="40" height="40" as="geometry"/>
                </mxCell>
                <mxCell id="V9dQcEgmOGx5oCRgF2Dt-35" value="3" style="text;html=1;strokeColor=none;fillColor=none;align=center;verticalAlign=middle;whiteSpace=wrap;rounded=0;" parent="5ZBPCBl7JyjE8Z1X_eLK-1" vertex="1">
                    <mxGeometry x="320" y="360" width="40" height="40" as="geometry"/>
                </mxCell>
                <mxCell id="V9dQcEgmOGx5oCRgF2Dt-36" value="4" style="text;html=1;strokeColor=none;fillColor=none;align=center;verticalAlign=middle;whiteSpace=wrap;rounded=0;" parent="5ZBPCBl7JyjE8Z1X_eLK-1" vertex="1">
                    <mxGeometry x="360" y="360" width="40" height="40" as="geometry"/>
                </mxCell>
                <mxCell id="V9dQcEgmOGx5oCRgF2Dt-37" value="5" style="text;html=1;strokeColor=none;fillColor=none;align=center;verticalAlign=middle;whiteSpace=wrap;rounded=0;" parent="5ZBPCBl7JyjE8Z1X_eLK-1" vertex="1">
                    <mxGeometry x="400" y="360" width="40" height="40" as="geometry"/>
                </mxCell>
                <mxCell id="V9dQcEgmOGx5oCRgF2Dt-38" value="6" style="text;html=1;strokeColor=none;fillColor=none;align=center;verticalAlign=middle;whiteSpace=wrap;rounded=0;" parent="5ZBPCBl7JyjE8Z1X_eLK-1" vertex="1">
                    <mxGeometry x="440" y="360" width="40" height="40" as="geometry"/>
                </mxCell>
                <mxCell id="V9dQcEgmOGx5oCRgF2Dt-39" value="7" style="text;html=1;strokeColor=none;fillColor=none;align=center;verticalAlign=middle;whiteSpace=wrap;rounded=0;" parent="5ZBPCBl7JyjE8Z1X_eLK-1" vertex="1">
                    <mxGeometry x="480" y="360" width="40" height="40" as="geometry"/>
                </mxCell>
                <mxCell id="V9dQcEgmOGx5oCRgF2Dt-40" value="8" style="text;html=1;strokeColor=none;fillColor=none;align=center;verticalAlign=middle;whiteSpace=wrap;rounded=0;" parent="5ZBPCBl7JyjE8Z1X_eLK-1" vertex="1">
                    <mxGeometry x="520" y="360" width="40" height="40" as="geometry"/>
                </mxCell>
                <mxCell id="V9dQcEgmOGx5oCRgF2Dt-41" value="9" style="text;html=1;strokeColor=none;fillColor=none;align=center;verticalAlign=middle;whiteSpace=wrap;rounded=0;" parent="5ZBPCBl7JyjE8Z1X_eLK-1" vertex="1">
                    <mxGeometry x="560" y="360" width="40" height="40" as="geometry"/>
                </mxCell>
                <mxCell id="V9dQcEgmOGx5oCRgF2Dt-44" value="Memory representation" style="text;html=1;strokeColor=none;fillColor=none;align=center;verticalAlign=middle;whiteSpace=wrap;rounded=0;" parent="5ZBPCBl7JyjE8Z1X_eLK-1" vertex="1">
                    <mxGeometry x="200" y="290" width="140" height="20" as="geometry"/>
                </mxCell>
            </root>
        </mxGraphModel>
    </diagram>
    <diagram id="NXgTtPvipWRpRSVD-e2y" name="005. for statement">
        <mxGraphModel dx="767" dy="337" grid="1" gridSize="10" guides="1" tooltips="1" connect="1" arrows="1" fold="1" page="1" pageScale="1" pageWidth="827" pageHeight="1169" math="0" shadow="0">
            <root>
                <mxCell id="zeYeEYzoY5eltySGT0UN-0"/>
                <mxCell id="zeYeEYzoY5eltySGT0UN-1" parent="zeYeEYzoY5eltySGT0UN-0"/>
                <mxCell id="fASw4ak7zCuimBqKj62b-0" value="When number of iteration is not fixed but rather depends on certain conditions." style="rounded=0;whiteSpace=wrap;html=1;align=left;spacingLeft=8;" vertex="1" parent="zeYeEYzoY5eltySGT0UN-1">
                    <mxGeometry x="210" y="120" width="440" height="40" as="geometry"/>
                </mxCell>
                <mxCell id="fASw4ak7zCuimBqKj62b-1" value="&lt;span&gt;&lt;b&gt;When to use for statement?&lt;/b&gt;&lt;/span&gt;" style="rounded=0;whiteSpace=wrap;html=1;align=center;fillColor=#f5f5f5;strokeColor=#666666;fontColor=#333333;" vertex="1" parent="zeYeEYzoY5eltySGT0UN-1">
                    <mxGeometry x="210" y="80" width="280" height="40" as="geometry"/>
                </mxCell>
            </root>
        </mxGraphModel>
    </diagram>
    <diagram id="A_-LOtor-5luyd1ePY1r" name="006. for in and of statement">
        <mxGraphModel dx="606" dy="654" grid="1" gridSize="10" guides="1" tooltips="1" connect="1" arrows="1" fold="1" page="1" pageScale="1" pageWidth="827" pageHeight="1169" math="0" shadow="0">
            <root>
                <mxCell id="7QlWJkBq4W5yWEF8iH_8-0"/>
                <mxCell id="7QlWJkBq4W5yWEF8iH_8-1" parent="7QlWJkBq4W5yWEF8iH_8-0"/>
                <mxCell id="5AoSg8dFKmiObB5OOcJ9-0" value="When iterating through for in, we'll get index for array, string and keys in case of objects for each&amp;nbsp;iteration" style="rounded=0;whiteSpace=wrap;html=1;align=left;spacingLeft=8;" vertex="1" parent="7QlWJkBq4W5yWEF8iH_8-1">
                    <mxGeometry x="120" y="120" width="600" height="40" as="geometry"/>
                </mxCell>
                <mxCell id="5AoSg8dFKmiObB5OOcJ9-1" value="&lt;span&gt;&lt;b&gt;for in statement&lt;/b&gt;&lt;/span&gt;" style="rounded=0;whiteSpace=wrap;html=1;align=center;fillColor=#f5f5f5;strokeColor=#666666;fontColor=#333333;" vertex="1" parent="7QlWJkBq4W5yWEF8iH_8-1">
                    <mxGeometry x="120" y="80" width="280" height="40" as="geometry"/>
                </mxCell>
                <mxCell id="5AoSg8dFKmiObB5OOcJ9-2" value="When iterating through for of, we'll get value for array, string and objects for each iteration" style="rounded=0;whiteSpace=wrap;html=1;align=left;spacingLeft=8;" vertex="1" parent="7QlWJkBq4W5yWEF8iH_8-1">
                    <mxGeometry x="120" y="240" width="600" height="40" as="geometry"/>
                </mxCell>
                <mxCell id="5AoSg8dFKmiObB5OOcJ9-3" value="&lt;span&gt;&lt;b&gt;for of statement&lt;/b&gt;&lt;/span&gt;" style="rounded=0;whiteSpace=wrap;html=1;align=center;fillColor=#f5f5f5;strokeColor=#666666;fontColor=#333333;" vertex="1" parent="7QlWJkBq4W5yWEF8iH_8-1">
                    <mxGeometry x="120" y="200" width="280" height="40" as="geometry"/>
                </mxCell>
            </root>
        </mxGraphModel>
    </diagram>
    <diagram id="vro356RjD5D0cCQeThEl" name="Page-7">
        <mxGraphModel dx="882" dy="387" grid="1" gridSize="10" guides="1" tooltips="1" connect="1" arrows="1" fold="1" page="1" pageScale="1" pageWidth="827" pageHeight="1169" math="0" shadow="0">
            <root>
                <mxCell id="IFifXzNAE3G-wkO_UbDk-0"/>
                <mxCell id="IFifXzNAE3G-wkO_UbDk-1" parent="IFifXzNAE3G-wkO_UbDk-0"/>
                <mxCell id="MlxnGkUc1gx8y1TMcXvj-0" value="0" style="rounded=0;whiteSpace=wrap;html=1;fillColor=#ffffff;align=center;verticalAlign=middle;fontStyle=1" vertex="1" parent="IFifXzNAE3G-wkO_UbDk-1">
                    <mxGeometry x="200" y="160" width="40" height="40" as="geometry"/>
                </mxCell>
                <mxCell id="MlxnGkUc1gx8y1TMcXvj-1" value="" style="shape=image;verticalLabelPosition=bottom;labelBackgroundColor=#ffffff;verticalAlign=top;aspect=fixed;imageAspect=0;image=data:image/png,iVBORw0KGgoAAAANSUhEUgAAAw4AAADECAYAAAA22XYCAAAgAElEQVR4Ae2dd7wU5b3/LYkpakxyU25ijAbk7J7eOIXeezv0DoL0qgKC9F6lKFKUIiBNFBuKiKICFhAQFAJ2/dmisZcYb+7NfX6vz+bOyTPP9N3ZPbO7nz/2NWXnad/nPTPfzzztvFC4muCPNiADZIAMkAEyQAbIABkgA2TAjoHz7P7kf4SHDJABMkAGyAAZIANkgAyQATBA4cAWF7Y4kQEyQAbIABkgA2SADJABRwYoHAiJIyT8ysCvDGSADJABMkAGyAAZIAMUDhQOFA5kgAyQATJABsgAGSADZMCRAQoHQuIICb8w8AsDGSADZIAMkAEyQAbIAIUDhQOFAxkgA2SADJABMkAGyAAZcGSAwoGQOELCLwz8wkAGyAAZIANkgAyQATJA4UDhQOFABsgAGSADZIAMkAEyQAYcGaBwICSOkPALA78wkAEyQAbIABkgA2SADFA4UDhQOJABMkAGyAAZIANkgAyQAUcGKBwIiSMk/MLALwxkgAyQATJABsgAGagmmjW6Qkwc/muxatYvxJYll4ldt14qbp/387TxpSgcUlA4vPf0D4Q4d17lb2CP36UN0Hyo8cVGBsgAGSADZCDxDHx65MJKv+OfZ88TLRpfkTK+R17un8Te9ReL7186v7KMsp+F/a7tLk+Z8trdPxQOKSYcpoz6tQ7qb1+8IC1AtoOc/yX+BUKb0+ZkgAyQgfRi4OF1l+j8j7N7L0oZ/+OdJ3+oK5sqGigcPDjTWeHqYmKoodgV6iKOZVwjPs8YI/4r4wbd70Cod8rAE+QHYVZWNfG3kxfo4F5w43/Q9h54DnL9muVtxMjB4ttvP6/8ffHFx6zvKqrv7OxMUVZUV5QV1xNZWSHWg0M97NixuZJbMHzq1Au0mYPNzJ4BsZwryq8pmtTuIDo2HSKa1e0scnNyWAcu6uDsuZd07G7YsIZ2C1cTNYuuEmhpkJ3qQT3/M+ltAz9KLpPVfue2bHFwrOwO4UJxKmOgTiSoogHHT4f6OMYVy8OPYf/1VQN97WSgvzrO1oZUZ2POnGni+++/rvz9/e9f8V5z8eL3i4tGtdqJOYP2iV3Tvxf3zRK6393TvhMzr31Y1C9rwToxqZPDhw9UcguG33rrFdrJxE5+sQoOB1UsEAuHHRRbJ3+uY1Vm954Z/xB3TvxQDO20RGRm1mCdmNTJp599qGP37l1baaf/s9P9qy/V+SGfPH9h0tvGrLXh1X0XiVHX/FY0afBHkZmZXi1LUXdVyg/XEO9mDHcUDRQOiQGqpOZV4n/O6Pvezb7+V0l/w/r10kzVeCgcEnN/qfyEw9XFDb02WDpfsiOG/ZFdb+W9qDhgFA6JY7d3m0muWZXZ3T71a9Gr9QSyq7BL4WDNbmGB0RdZODG5ez6o4xpSQQyp7zQvx1ELhyWhlgbRgG5K+0I9xaZQhVgf6lD5GxqqzQeP8uDxUklurt227Gc6lf/dyfNp8zjb3E29xPsaCgfrF1g8bT970F7PjtjkfnfznpTuSQqHxLEbrXDQRMTIrreQXYldCgd7dh/beLHOH/n8aPK2OmBQtNyTA/sbFlyW1vdD1MLhzYyhOuHwVKiPKA5npLUx4+moOMWtjm3AICWnMPzf/uGXDPahcEh8HQ5oP8tSNOyY+q3AV1rN4VK3PVuN5335fw4YhUPi2LUSDrtn/jPC64Yb3xPbpnwpcKwyqx23rN+T7P4fuxQO9uy2b/kHg7Pdp/Pvk5IfzAylCocZY9O7N0dUwgEDotWxDJ3CRUkJRTI4h055HD3gtwaw2zT7A+tD+kLkZMNk/b+4Zp6YO3e6WLBgVuQ3a/ZU1nsc6z0nO0ugD7jmTGnb5aNPiPLi+pW2LymsJdbc8JrhOox7YL/xfzkdrVo3reQW/GKgf7Leh0HPtyYcwO6i4YdFj5bjRH5uvqm9+7ebJnZO+5spu+iiF/SyJiJ/A6/tq2O3U6e2tIvy3EUrg+xwn3zgx0lpo7bNjSIoFQZ8x3KfRCUcGoVzDMKhkK0NVXZTYJCOfIOme/+7WG4IhrX/kpTu9hndbZXBobpr8mcCMyqptsnJzhZbbvrUcP3gjgsN16pheUwO/WSgtKi2aFGvm2vuigtKTAf8YzIAP/PFuFKX87tu1k/W8r9nz4vMupRsdW4mHPp3Te+1saISDp3DxQbhkGwwpEp+i4uu0okGCIiNC9O7/12q1C3LEbyXqtlsNHVLm1k6UzePeN4gHDZN+sjyetZ58Oo8XeukT5vJBnYxK1O62iOR5e4ZLhFDQrUjv/6hsrjYPN5p1Cq90uCbrJ2bfKsrUzgYn8m2wgEzJzUN5xp+I0N1DcLB7DrtXN1wlifwc8NXi3bhAnFdqL5YE2on7gp1FKtCbcXYUD3ROpwvssNXe4pPveHRYqLlDfvq/xBGs0PNxIZQB/FQqLvYGOoQOe4RLjFcq4ZN9PG00foF3yAc0L8w2nwUNm0situ0rvxlFeV6jqu4davK8IgrMy/sGEc462pRq1cf0WzaPNH+tjtF1137RO/Hj4uee54RFet3ihazFomybt0d47Erd0GjBrp8hbP1Uw3WbNdOtF5ym+i89SHRe/+xSNod1twlGo+fLMI5VTsvf2bW1aJhw9qOv/oNasVkIzv7pft/WJ9B65qkbW8Zc9LS3m0b9jdcr4UrzPfWtbNlqyaiS9cOhh+6+wS9XvILshy5Bdtl5d5sEvRyq/nrGq4p5oSsRaZ6fVUf1ywsN/A7d/B+z7yhG48Zu/Xql3uOK9E2KSsrdMVuUbH396RdWU5kDND5WEVx6NGRiDS+OqZfV+rco8m3IByFg0fhAKWrjmWI5tjtOg6Z4erCbLYmszRnhZqKsNKnzu5GlP/7S8ZIXbk0QdAlXCyez+iv+09NGzcblLocX1XuH9z2U52qx5SsseTnmudfE0Ne/aLy13z6fE/x1R00rDKsFk/zGeZfqXLKikXTybNEz0eeFYNf+cwQTgsvb/sd/rOo3W+Apzxp9rj21Pu6NFrOvTkST53+A0X/Z1/R/Senif1BL/9F1B82Kqp0tfRj2TZv0Ug3b7i8doO8z3UcjA+5WOwuhx3SaZHBkerbdrIpE1lZGZHBpppQULf92003DSenp+2X1yq2rPuPPnrXdTxafInerrxtmWX+ZXZTcR2HsnBYzAg1FWczBkfeK3j3JNr+0aaH7ncqt4uHP+Mp//MXzLKs+/37H/YUV7TliCUcFiWUGbXa93sdB9Wpj8fEM4lI4/h9P9b5J//1cmz+SSx1GW1YCgfjO9W2xSGRwqE8nCmwwrTqqNsd7w31FCVh71+CVeFwbaiWwM8uLfm/LaGOgXngqQOQPjj0g5jy1v2+AzoHutOm3Z7iG/DCW7rwg/78V5FVYGzVwU3cbuVG3bWqs253jFYALw+CrMIcQ1r1h48WbW5ebThvlS5s4yVNP6+lcDA+vPy0r5u45gx+zOBIyQOi5TjG995kuFZ2wqYNuN81S7XrlFg6LxQOVc+FXO/YxwetXuEScW+oq+GdkkzCoXWD3gaGx/W60zW3sMWixXMt2aVwsGY3EU59ItJYNesXOuGAHhGtmlzhiSH1/kr0cbf2l+vKgLEayVYGv20WCOGArzKqMy876nb7WITOqxpX01oUamF4wNulGRThkJ9vnF9434aLY7op2yxdo3Ok+z71kuv4Go6doAsLB7zZ1DmW4Xs/9oLheiun3ex8Sfv2lnGrNwq6QalxoDuUes7uuPWiqlvEK1mFQ61wpkB3QL9/sXZXVPlwc3z7uDd0jtS9M//blL96pc1118mCQdtfOfa0aVizfFA4WDtYZvaqqnNgfV6ouVCnKpffJckiHDDz1x3j3zZw3KW5t1ZXCofo2E2EU5+INCpaGWckWjMnucY5mHUHT/dZK22FAxzyinCR4Tcz1NTgaJtdp51rEc6zfUneGmpjiA+LyU0LNYmMdcBYiw7hQmGWLh7KcPy9vCxU4SA/2LF/JKO/WBtqJ8aFGojBodqRpmaMs9CuC4pw6NXx9zolDDU/b3xsKzQ2GDlW50wPOv2xK9tijILaFWjgif8ncN6qbtD9R3PUkU7HDbtE4wlTImMZcspqCoxBKGhYXzSdMtsQN8J13fmoZdxqmi3nLq1MS0tT3UIkYTxFkxunRrpQVWy4Wwx44c3KcOjSpMabqGOMcZg2fZJYuGiO7nfgwKO6L3pB66qEVkHtvvFz6/RMiUe9qFNUYjYls3RUh2ty/12GGWowyNosrNm5ZBcO6GqF6VZVdtE1Se76kYxdldC9Fi3zGAvnhu97Ql1c17sZC4k4V1ZUVywfddwgGjBDmNf0k104dOzU1sAtOP7660917LKrkrVAwhd6+CbaD92rvXJUldfvXKFfXBflyMqyLm9V5jVRadsKB6tMYCyA+pC0utbpPFob1Ljg2GNwtFlYrBcBUSGHwbGXVgc74TA51Ng0XeQFg7x3hDpHBmqb5S3R5yYM/U3lzajdlKOu+a1l/t3kr6h5s0pHWXOsrboayfHBudeu17b1hlr354UouPalDwS6/0Qc8kz7+cGzi/IEhIgWN7Zw6uU82O132/24LqwunuPviJIOHczjyqwuMM4DYzCya5ozaZduvP8L+gJwqSQc0MKgtRhgi3Ua1Pod0H6m7hosBpeVFTKMd9g1/XtDWDUu7TjZhYNWDnWbzAvA4V2AD1Zo8ZbfRWb7pzMGRT4+oTuuaoOqPMbgfYzRwQ9TBGNl8xWjX9Txq/GOheHQdclrfpNdOFiVN94LwCWiNSARacB+GNeg+SfYvrznR545sqqHeJ/PzKwmvjulz/9/n06+cRp+26nKhYNZa0PfUKktWGgFUB/Qi0MtbcPIhrMSDlZiRQ4bpP1lU3+puyFxU3Ztd7lrO5iVBS0EslON/dLO9l/JMGsSWgzkcP0OnokpH2Z5w7gGOQ3sm11ndm7A8XcMYRG+4533iHB28q54TuGQuC8/mhOlbZeOPKrjDzMlqeKiXaNrItfcOfFDnUMGR8yMU7NzFA6Jq2Mz+2vnsPApxsK5EcP4mLUu1F60Dxe6rmctnURtNY6dtmhpa1qnU1TloHCIjt1EOPWJSAMsf3NCP7PSu0//MCqWEnVfaOlgqnssWieLHuw/v+snSZF/rRzx2Fa5cFC/2KB/qNNsSXiAq84/Zq1wayA1LETI+pDFF+coZ25ym5dYrtu+3NiEVrfWla7tYJW2+mW/yY3TbONsOW+ZwSl3EhtWadudL+3UyZCO3fXaf5hKVRUcOO779Msi5NDSocUR1G3QhQP6fB8O9fX91yCcbcuk3/WFPt+qg4UVeOV0cCxfs2DoU5X/r77+Fd1/uE4Oa7dP4RCd82VnUy//NQxni2WhVoZ3jvrxCsf7Qj3F0FBtkRPjlOFe8hfttTKrVvtY8DCWlc4pHKJjNxFOfSLSAJsfP6tfQfqLFy50/eyLlm2v4SaN+LW4Y97PxfoFPxePrLtE/PmRH4l/nNa3NEA0oLWhvDR2H8tr/oJ2fZUKBwxwVB++cDTcGGlpqJUhrJPg0OI1Ew51PK41ocVVldvHNl5sUMN+5Kfn3ud0jnbFHTss6wSzFQ0++6nu+h4PHrS8Ppb8NRw7XpcOZmxyEx9EjCockOe8erVdhXeTRlVdE3ThUFV28TvdvNw8g+MvC4P2jQbo/r9nxj9Efm5+JV/LRr2g+x+OWjhs3z1PK0NxzTzx2ut/Nv2tW7+6Mg3t+mTZBr2rEhbgejzUy/CeUd9Z+GiF6cFrB6wrkhMHVmJBPb/2htcFxj04xWf2/4iRg025Bc8jRw2JKk6zdBJ9LpauSv1CZWJUqK7tTx1gf1Ooke31fZReGolIw63N3z7wQ52fgq4/bsMm6jrMRqm2LMjH/zx7nsDEMyU1rwpc3hNlIzmdKhUOmGlFfQi7XSNhQKjcENZtH1JVOOArkWyUZNm/f/WlBtgLC2IHu/3qLTpHG7MfWdmk7Yp1umvhoBc0bmR5vVk8eXVqCUyNigHM6DrU69Ej4pojbwhM7Sr/IBRkAdD/uVddpYNF5eRw2LdaW8Isf0E+R+EQ3Rc9r3VqNqe91lUJYxgwlkF2uHq1nqBjE9fK/2Pfax5S7fqgCwf13SQfoysSWqkxAUiy1suMgXvEzGsfjvwWDjso1o1/R9w97TsDp2AVY3Ia1WqXtGX1u45iEQ7HMq4x+C4yW9HuF0tT0yciDbc2ff+g3ilH1yW3YRN1nZ1wQOvD9YN+E7g8J8o2ZulUqXDAwmvqTeJ2thT0HVXDun2Iq8IhGbspoTKxfLusirHvxzRhjW6YpHO0MVuSGTxYwE1duA2Ov9m1ZucgMLrseESXlurg2x13u8fdKqZdtj9sSAOzNpnlKdnOUTgkRjiAC9Xxx5dYnJ/Yd7vuP7OpVm8Zc0p3jZcxDsnGpNv8JqNwQNfaEaE6IjcJuiK5rQf1uk7NhgvMGKbyjla03BzzNXnUOFL9OIjCQV7TKl7CQU7DbR2ja5Lsp3z0TGxrTblN18t1px78kS6Pcn61/U+ev1CMHhDb5DNe8hTka6tUOIwN1Tc4/27BxKwWqnAYFqrjyhlUhQOamYNcSVZ5m3ndrwywD+zxu5jLgvURVIfdbABxxboduusgIiAmrPKrnccMSXazHKlpWx23mr/cMS2kqa6GHY+B21rZEr2lcEiccICzLztTmyZ9JOqXtdCdwzWlRcYucJiBSQ5rtQZEovmpyvSSUTjgnYPpuieGGoqa0hfeqrRjPNJGNzqzcTkT+mxx9cyNR56CFCeFg/vnrjor0WuPXRQ4hjB7EtbFQo8NTHO/csYvhLq4LgQEppb14+NskFiOJi9VKhxmmKwHgXmx3RSkIFzDIBwmhdx1kVGFw3CXgsNNvhJ5zZDe/2kQDpNH/tqV/ezyiVmSVGe9uE1rXbzoXqRe03rJKt01Zmlk5meJfofPGsJqccHJ77XviOjx4NORqVq73fu4wK/3/mOGMLV693VMz2yWqBazFzuGM8t7EM9ROLh/gcVaf/jiKjv/O6Z+G+neIZ8b1vlmU7YwB758HWaqiTU/yR4+6MIB06iqH6fU492hrpF1HDBhR7LXh5r/ovyahvVHKHj/9byJRThMCTUWK0KtbX8qZ2tC7WyvR3x54RqVDCYiDZUXq+P/OaMfZHz0nuSYlSg7+0/ixfuNsyq98XhyzAplVR9+nK9S4TA6VM/wYMa6Dm4KVj+cbQiLwWxuwqrCAVPsuQkXtGuaNPijQThsXnKZL2XBGguaM48tBibL5e+yfY/ufyzmBsEhX2O2byYAMHah3pARtuGxKJucH+xnFeU6plezbVtDOFUEmeUzWc4FXThgUN/GUAfff1UxEBUtDLLzr+5vuPE9Sx5V0YH+5MnCWLzyGXThgMk20J12V6iL4V2jOnZ4p6wMtRGtwv8eEB8vuyUyXoyBUDkvK66X9uzGIhzc1F8iZjxKRBoYTKx19dG2D669JGn4ycv9k2F2JQghN3WYytdUqXDoGq5peCC7ffBiPIP68HY7Z3aqCAeAqU4ZhoE8fgDb54kTOoe73cqNlfFibILqxMOxd0rXbHYjtDC4md1IFRxW4y7UPGAqWTmv6E5lt5q1Gj7ox0EXDm7mvFfvYzfHbsdC+Vl/ZgOcZaeqQXkr03ugMK/I4HzJMzL5mcdkiivowkG2JbrQTgs1EZhByYlPOGT44lvq8iOYnE7Q9gd2mGNgt6KJ+6nPg1Yev/JD4eCupRfTnGqCQdsm20Dj+1YZJ6GBoPCLpWSMp0qFQz2TcQrqtGJWRkUrgfoAd/ugTiXh8MqjF+luzL+d9GfGgo4bdukc7h57/j1nPVZ7lp1xzHzkZj0EDGaWw2FKVEznalXH2nmMiZDDYb/nnmccwyF8p027dWEhVLR4U2FL4eDuBeZHXaN/tywU5P0JvTdbcoXBpvK12B/TfY3l9X7kNRniSCbhINuzc7hYbAt1Mrx/1PcRjh8KdY8sGpesXZnUldDB7jXtZqQ9uxQO7p67j27QTxmPMQK5SeZ0TxllFD+xLrQrP0+Scb9KhQMepurDdnlI35feyqjo86eGtbpWPZ9KwmHDgst0wgGqvmZR7FOyNp0yW+dwY+Vl2NGs60+d/gNdvUjU6VTh1Kt1Y3aMsROqcGhzs7v56/sd/rMuLLpYmaWRrOfSVTg0DTt3U/O7Tts27G8QAHCktk350naRLEx7qQoHryvxHjv2rPjss7+Y/vwuZ6LiS1bhoNmnOJwhMK7uVMZAw7tIfTfhnYN3VptwQVI9f6YNuM/Abo+W41yXIb8gS3z00bum3J46ZT3Nt2bjoG4pHNwJB3UqVsxMFNQ6tcpXx9aXG3ys/l1jn4TGKr1kOF+lwgEGUhc6wQPW6esMpsLDPNrywxkD2dwaPJWEQ0WrPxigRvOgW1tYXVfevafO4YbjjlYFDFyWnfg+B066SstskLKbWZFKKjrq0tPSrjPAXX2r08U2mzbXVX6t7BK080EXDh3ChZHBo/1DZb5tu4erZipdrKCLwaGqCICgsOICYTAHvhwGx1bXW52HaPj++69Nf5lZV3uOzyqdRJ5PduEg2wqcbwpV6N5J8vtJ28e7Rw4X5P2srAyxdfLnOnbBsZcxDiWlBabMguWPP7YeExRkuyBvFA7uhIM6MPrxTRcnDf8ag22bG30sCoewOwA0I2LbJVxseEDK/3vZXxhqYYhrZMh+lcpxoQaGMJihyW26qSQcUOZvX7xAJx4wJ7FbW1hdl12cb3DYG46dYDhXs527RYEwnavm9GvbTpvvs80nBj8PPPmeIRzC55QU2oZFuQqbNjaELe3Y0TGclU2CeD7owiGINoslTzePfN7gSNl1OzJrbZg35AnPDFI4eH9PxVLP0YbFbH/jQw2E1Tz6VSEcyovri2sr5nleg8FsYDSEhBfbUDhEx20iBi7HO40JQ3+j80vQGyIZHW4KByPDVd7iUBTOMLQe4OsMlkw3e0ANDtU2iAY8jOWpyMzCyedSTThsW/Yz3Q2K5dH96Eeodi3SHH5ti2lSZbs67WNAsxYWW7QGFDRqYBoHplrFTE3y9do+zjulhf/NhI7ZehRu4grqNRQOxodaPOuqYa22BuGAr7BmA0Z7t5lkem2dksau+JXLQeGQ2HqWbR/tProlrQu1173fqkI4aF3ssMbIouGHRMv6PWz5q12zoVg8/BlTdtF1yYs9KByi4zbeTj3qMN5pYKIWbUA0tlgIzgs7QbmWwsHIcJULB8Bh1uoA8bAq1FZAKGAGFUy1ervJuAZc56W1AemlmnDAlGcYdCTfpAsn/kfMNykWStOcdbNtfn37liH1xseAZjUeiJOmN80URc2bCbReNJk4PbJug3qdfIzuUmrcZscdbt+mSy8yiDuKFjazuBN5rnuPTmLjxrWmv1dfPa3rCvD3v39lep0WvkOFuzFEiSxfsqW1fPQJU6dqzqB9okfLG8SILsvF6uvPmV6zYOjTrthVbZKswmHChLGWPH755V917KKMGqdmW/SXV+2SDMf4qIXFTp8J9ROvZQxJeBk04SB3l7t72nfijvFvC/A4rted4roed4g5gx8zXfRNC4e1RzBDmBebJ7NwWLFisSWParfBV1552fLaRYu9d4+Nt1OPOoxnGlhMTfVJ1s79uSd2vHAWz2tbNL5C51vBz0q2maH8tk8ghANaHdxMc6f1E5W3GJiWLy184sZAqSYcUGZ1yfR3nox9kZLOWx/SOd6y8w6n3I2t5WvKunS1jE+OW95Xxyjgv3a3rHeVdp8nT+nS67prn6twcp6DsP/mm+d0Dpb60vJyvGTJvKS0QRDqQctDfl6BwOJvmkPldotuHrk5zrOIaenI2y+++NiSgSCPcfjuuy8t8+2FW1xbp25p0rPrpWVcrv9Y9s2Eg1tmtevQWtGolrtuqXJe6zeoZVn/QR7j0L9/T8t8e+UW965sEzf7WJl8Sahl5Q/jOt2E83JNPNNYNvWXOmcbvSAgJrzkLyjXZmVV05UFwuHmyb9MyrL4ZdNACAcUBs7/jlBnQzckWSSo+1tCHT11UdKMlorCYUD33xngbtrgipjgbjF7ic7x1hx6TKOKKVI1e3rZtlm6xjROLW55i65N6LIkn8N+vcHDXaWNfMphk3XF6LfeesW3lxiFg7HZ1Qu/2rVYs8GLeMDMS9F0UUJ65bWKLev/k08+cHUvaPlO9BYtYF4dLavrU0E4JNr+SC9W4YCFD1s36B0VZ2pXSrluDx3yPtYnUfYbMLCPb9xGIxwSVc54pfPX5y7U+SPP3Z0cq0Vb2eO/T+tXv35yy0+juh+s4k+281EJByzSpjrxfhUcA8tUx15N692M4QKrTkebphp/sq4crZYfS6HL3ZWO7f5x1DZC3JhmVXa8tf2Wc5fGFG+DkWMtxy8gDTj8HdZuFZl5maKoZQtDHnJrOX95zMzPMoQr69Y9pnyr9k7UMYWDP86+3/WVl5sr5g85IPA1Vvsyq27xHwaZ5mRH381m3vyZlk7M1GkTA800hUPVs5udnSm6t7hOzB6013SWJJVZ7Xj71K9Fz1bjY+LrmWefMmUXXKA1wu970q/4KByi53bswN/q/BB0WWpQ54+BrWs3zHx5TD8BDVpQ2rf8Q1KXyU25ra6JSjhYRebn+bJwWPQKl0TGL2D+a6za2SNcIrCCp5/ppFJcAFkWDthH/7wgljEzLxwRJi1mLRJtlq0VFet3itZLbhP1ho4UqTaAOYj2Z56ifzGqtkP3o75tp4jxvTeJeUMeF3MH74/0G8fg6FgEg5bOkSOHTJ0vzI+vXcOtf/WZ6rYsLigVHZsOEVjcbWz3tWL6wAfFwmEHxeT+uyKzL7VrdI0oKfTHqf/8849M2d3/+CNkNwnH27m5N9TWhgfXXpL0dX1o+08NvhX8qw8O/UCcfODHAtPMopzZ2cnZHctNvcrXBFY4yJnkvvuX4jM7fqIDHFDTfu7tR1vRVkFjwGp8ww3jRvPeTlHnK1AsTAEAACAASURBVGgMRpMfq/ENaG1A97to4mSYYD+fMWhY/nj5Xy+fL/KSbKVoM8bKSq4U6poUcjm1/XRZUZrCIcVePOWlVwo0o2kgY9umWfo2qZk9BHgu2C8f1s+/66dR47qmX2zfe/8tOl4p9uxONe6XLl1gyu6ePbvJboqyq7Y2LE2hQcSzb/iV+Icy1kH2s7BP4ZCiYKfaw9msPFg5+qG1l0R+9626VBQXXcUHNXkmA0nIwPIVi02drxEjB7M+k7A+zZ7XqXru+PHnDOxili1M0ZqqZU73ct1726WVvseOFT9LuXpGV6TVs38hXnn0IvHV8QsiQgIfajGOA7/ObS9PuTKbMc0WB7580gJ0M/h57t9ftmmLYNri5MmjBufr7bdf5T3L53bgGfjqq08M7N577/bA55vPwmA+C1kvwakXCge+gPggJwNkIKAMnD59QmBhNPmHGV/4Eg3OS5R1YawLLNYnM4v9Dz98RxQWRbeOCW1stDFtQptUFQMUDgF1GKoKCKbLhxEZIANkgAyQATJABsiAGQMUDhQO/HpJBsgAGSADZIAMkAEyQAYcGaBwICSOkJgpTp7jlwgyQAbIABkgA2SADKQXAxQOFA4UDmSADJABMkAGyAAZIANkwJEBCgdC4ggJvyak19cE1jfrmwyQATJABsgAGTBjgMKBwoHCgQyQATJABsgAGSADZIAMODJA4UBIHCExU5w8xy8RZIAMkAEyQAbIABlILwYoHCgcKBzIABkgA2SADJABMkAGyIAjAxQOhMQREn5NSK+vCaxv1jcZIANkgAyQATJgxgCFA4UDhQMZIANkgAyQATJABsgAGXBkgMKBkDhCYqY4eY5fIsgAGSADZIAMkAEykF4MUDhQOFA4kAEyQAbIABkgA2SADJABRwYMwqF5i0ZC+5WUFjhGQKWZXkqT9c36JgNkgAyQATJABshAejJA4UB1SXFIBsgAGSADZIAMkAEyQAYcGaBwICSOkPCrQnp+VWC9s97JABkgA2SADJABmQEKBwoHCgcyQAbIABkgA2SADJABMuDIAIUDIXGERFaa3OeXBzJABsgAGSADZIAMpCcDFA4UDhQOZIAMkAEyQAbIABkgA2TAkQEKB0LiCAm/KqTnVwXWO+udDJABMkAGyAAZkBmgcKBwoHAgA2SADJABMkAGyAAZIAOODFA4EBJHSGSlyX1+eSADZIAMkAEyQAbIQHoyQOFA4UDhQAbIABkgA2SADJABMkAGHBmgcCAkjpDwq0J6flVgvUdX7/nZWeLkqGPitevORn4vjz4hwuHqgb3PFnSYU5lX5Llv/R6BzSuZjI5J2o12IwNkwC8GKBwoHFLWSahXv1y0at3U8ZebF05ZG7h9UBSWVRdlDa92/GXm8OHrZFPVEb+l89JA89WurKVOOBwZ/ozIyqwR6Dw71QH/531KBsgAGYgPAxQOFA4p6yCcPfeS+P77rx1/hw49kbI2cPvgXLQvW2x/N8/xN2VLVtrbys6mtQtKdE44vuCX5hX5arMdOzaLb7/9vPJ36tQLMcd/X79dunzf2PKGmOO0sxP/i88LnXalXckAGYg3AxQOFA4p6yC4FQ7PPfd0ytrA7QPErXCYtp3Cwc6mm3tu0DngSzsu9J2tw4cP6MTwW2+9EnMarUqb6fJ9ZswpUZSbG3O8drbif3RwyAAZIAPJxwCFA4VDyjoHFA7uH0gUDu5tZfWia1vWQud8nxt7WtTMzff9/oqHcECZ7u6zVZf/5Z0W+553K9vxfOz80Ya0IRkgA4lggMKBwiFlnYNBg/uL+QtmGX7ffPOZ7ostWxyqiWZdaojuY0KG3+bX9d2X2OJg/WK6q9edOsd7VZcVcbm34iUcKsrb6PIP4YOB3ol4ETENa65oG9qGDJCBIDFA4UDhkHaOwWuv/5nCwSX3Sw/k6MY9UDiYv8BK8gp0TjfGNqAFIh4P+3gJB+T1hRHP6coxrsXYuJQhHnZhnOZs0i60CxkgA34yQOHg0oHy0+iMq2pvYgoH9/ancHBnq+ltJuscbsxMFK/7HDOFLVgwq/I3YuRg39Ka136WrhzPDjvoW9zxsgfjdcco7UQ7kQEy4AcDFA4UDmnnGFA4uH94Ujg42wprNJwYeVTncM9uNz0p76uGRXV05UDLCbow+fGyYRzOLNFGtBEZIANBZ4DCgcIh7ZwCCgf3D2YKB2dbdandweBs1yssT9r76snB+3XluaPb6qQtS9BfwMyf8/1FG9FGZCBYDKS9cMjMulp06tQ2MoB2z57dAjPxvP32q+LIkUPi7rvvEtOmTxLZORlRvTixANnESTeIXbu2itOnT0R+Tz31mFi+YrHo3qOTQNpebogmTeuL3r27Vv7QZUELX1iUI1atWi6eefYpAcf4zTfPif37HxYLF80RjZvUq7xOu97LFvZB3A8/fJ/AnPHvvPOaePXV0+L55w+KBx+8RyxdukCU1yqOKQ2/bWVXvngKB7By443Xif2PPxKxFVg6d+6liJ2mTpsoGjasHZOd7MoVj//iKRzKG18tuo3OEOPWZooFj2SLRY9mixtWZYquIzNEWQNv94ZZ2fNrVhedhmaICXdkiuUHc8SS/dliyl1ZovOwDBHO+teDODu/miiqVb3yl5Pv/QG9UFl5Ga0PZvnxei6/ICvCC5ix+5WV+7tOxOKKeTrh4Fd5UP6WrZqILl07GH7ys8yrnXi9d2ZpM9qMDJCBaBlIW+EAp3337h3i73//SjdQ1mzBMCy2tHfvAwKOuxtD129QKyI+zOKSz3333ZdizpxpruJEupj9Rw7/xhtnI2G3bFlvWw6Ucdbsqa7T0crYrVuFOHPmRV2acvrq/gcfvC1mzpzsKZ142Uorg9k2HsIhLz9T7L5vp0CdqnZRjyFOy8oKPdnJrByJOBcP4dC4oobY9EqubtC12eJz68/kigZtvAuIzOxqYta99gvabXo1VzTtXENcOzOsy8fGs97XLnjs2kd0jva23pt8qduVty1zZAls+bGOg8xS/wa9dOVBd6Va+TVjLhM+Lqj3gnb80Ufvxhy/XAbu0ykiA2SADMSHgbQUDnCIP/74PcuXmPYyU7fvv/+W48ttzNjhkRVd1bB2x5glJTcv7Bi3mXBQz9mls3XrRsc0tBsNQsMuLqv/8IVdi8NpG09b2aXtt3Bo07a5+PLLv3qy11dffSIGDOzj2lZ25Ynnf34Lh0Gz9Y66mWCQz217J0/0uynk2k55RdXFrc/qZ4KS41P3Z96TpRMOEDRe7JmTFTI42ZNajfcUh1V6VSUcsNI1xIL8G95kUMxlql2nxPIeoXCIzwveii2ep73JABmIloG0Ew7oumPl9DqddxIO+NruFIfV/++++4bji9mLSDBLBy0PJaUFjun07NXFtgXDLG7tHLoxuYEx3rayy4OfwgFdLNAipZXf6zbo4sFP4TBxg95JV514u+Oxt2Q6cpWZU02glcIuHqf/vAoHs/ENHcpbO+bVjk/tv6oSDkhfHeztxzgHCgc6Khrb3JIFMpC8DKSVcEBf4L/97QuDkweHGuMB0G0IjiCuw9dwdAGCI6w5g07C4bPP/lJ5rRbm668/FRs2rBFwxtGPHw7ziy8eMVyH6ydPtv9SaScckLdbVy6NpDNoUD+xY8dmU+cf4zacbtijRw8b8of4YR9tLAP6X2O8BRZYk8vjVjjE21Z2ZfRTOGCsh1bX8hbjQcAQhFq79i3F3LnTBb6qytdgP+hfWv0SDiV1q5s69CufzxG9xoVEaYPqAmMe+kwIidXHjM4/Wh4Ky6rbsjtwhnlrxo3rM0WbvjUExjxgO2WLtYDxKhzGNR+j+zKPr/S5Wc6th3Z8av/hXsO0q/jYIf/QNUnmyO+uSkj/nr47dOVCdywtX9FuKRyS11GIts4ZjnVOBlKPgbQSDurCSXj5fv75R5GBynZw33zz/IjgsBMOeMHLL3Pswzm2GpgMB1693smJtBIOhw49YTrQ2qzl4IsvPnZ0AFRxhdYQp4HcEEUPPXSveOrp/Y7xJ8JWdvXpl3C4/vqRhjpEnaMrnFn6sOETT+w1hMGXZbPrg3DOL+EwfYfRWZ+/J1tgPIJazqycamLJ48YxCmixUK/VjjHYGeMW1BYFrIatXSNvrbpMeRUOc9pN1znYWG1ZTice++pzLB7CYV331bpy+bEuBYWDkfV48ME4aWcyQAbiyUDaCAc40aqjjn7mmI3IjYHr1C0V8+bPtLzW7Au60ww6x449a8jTlCkTLNMwEw6ffPKB5fUo1/Hjz+nSQOuKXXnNXu6LFs+1DWMXn9l/ibCVWbraOT+EA0SAWg4MjHYzOwwGkcssoquTlregbf0QDmatDeteth9LEM6sJjae0wsBu1YHtFSoomHMCvvuTXMfMIoTr8JhZeflOgf75Khjca/LRAiHpR0X6cp1ZsypmMtl9mzR7gOnjyZBuy+YHzpmZIAMpCsDaSMc5O402svq1ltvjvllCHAwtaoWp7bFzDlOUF0zoLch3EsvWTseZsLByam/zuSrOF7gVnnDzFFaGbQtutlYXe/1fKJsZZcvP4SD2eBxty0HPXp2Nti4fYdWvtnYruxe//NDOAyZZ+xCNGiWc3eeEYuN4fpPNm9BuOWwcUA0plm1K2+rXjUMYsOrcMAMSvIg4kSstJwI4aCuhI0yhjPt7Wlna/xH4UBHy4kR/k9GyEDwGUgb4aD2L0eXHafuN24BnjHjJoMjOG78GFunRYsbLQaag44tvkZr/6lbM+HgVAbM+CPHj/2+/XpYpoE00Sohh3nvvTeTzlaq7eRjP4TDAw/s0tkI9nLbeoW8YOyLbOMlS+bZ1omc/0Tu+yEcJm/Wd1NCy0FuobMTWlBqHBeBNR/Myq+2TqCrk9l16jkIBbmlwqtweOia+3TCwY+xAGoe1eNECAezsRs1c/Nd2VTNr3ZcXDMvssYM7j/1t249F5nT7MRt8B0n1hHrKJ0ZSBvhoPbbf/rpx2N6CcrQbN68TucEwiHEvP7yNVb7R5SByHAora5VhcM333xmea0WBxYkkx1U7Nt1h0I4tQsOwmAsyO23r4x5AbNE2Uorv9nWD+GAhfBUu2KKX/X317++L9SfKhYRz5NP7nOsS7OyxPucH8IBC6/JzvntJ+27KcllwroKclh0L5L/1/YhRuTr3MzChLDqWAqvwkEdRPzUYP+eK1rZ1G0ihMOkluN0gsjPQd9qeXhMJ4wMkAEykDwMpIVwwGJbqpOHGZP8AhWrQcvxo6+727gf2rNbFxbxWIVVhYPbfsFy3rCPFhKrNHAeszOpYeRjjA2B4wwR0Kdvd9u41HQSZSs1XfnYD+GgtmDJ9olmH3mS8xiUfT+Ew+0v6p3/ZU+5G1cEG2DWJVkQ3HbEGBazLcnXYN+qS5Nq1xl361tDvAoHTFMqd1V6YcRzca/HRAiHBcpq2IkY9K3WDY+Tx5FgXbGuyED6MJAWwmHI0AEGR3ja9Em+veAxnkF2FrEYmNub6I47btOFRTzNWzQyDa8KhzffPGd6nZq2nDfsOwkHhH/ttTOGfKnxaMcQEpjO1k1XnUTZSrWBfOyHcFBbsDRbRLt1W5dyORKx74dw2PKGvjVg9m7zVgOz8ix4RN9agZmT1OuadzWOVagYlGG4Tg2H4+tvy9SJDq/CYXHFPJ1w8GMQsVk+5XOJEA6rutyiK1ciBn3LZeR++jghrGvWNRlILgbSQjhg/QHVoRs0uL8rx8IN0O+9/5YufnRNcRMO15gtSIdB02bhVeHwxhtnTa9Tw6pldyMcEMedm+4wjHdQ45KP0Z2pS9cOtnlKlK1UG8jHfggHudza/tmzp0S0P0xRK+cxKPt+CAe1NeCmTdbTqqrlnrFT3yKw9e08g53a9s/QOf9Ir02fGobr1LhxPOGO2ITD5FYTdA52ZBBx2Hn8hlle3J5LhHBQB30fHHLAlT3dloHXJZejwPpifZEBMqAxkBbCwWz2otlzpvn2Ijxz5kWdcMAXeM3ATtuNG9fqwsIJtVr7IdHCAXnHQm+w1fETzxsG9GoOs7zF+Ai7AduJspWd3f0QDupq0VgIzi7NZP3PD+GgtjhYjVMws9GifUqLwyvGFoc6za42CIce15nPvqSmMelOvTDx2uIwuNEAg3CoV1grriwkQjg8OXi/rlz39tsZ1zKp9cJjOilkgAyQgWAykBbCoag41+Ccb9++ybcXobqol9NaCfLNsHfvA4a8yf/L+1UhHOT0sY/1LJYuXRAZ46DOvqQJCAyiVsNpx4mylZae2dYP4aCuxfDhh+9YltksD8lyzg/hsOaEfozD8oPGcQpW9sCYBrnFAmMe1Gszc6rprsH1wxY4T/eKeLAInRy/V+FQu6BE52CjxWFo44GGPKp5juU43sIhOzPDUKYZbafEtUyx2INhg+lcsF5YL2QgNRlIC+EAeNUvxIefedK3F+GGDWsMzr+b/v7Il7oInF1rRRCEg/wgQMuI2ViI06dPWNo2UbaS86nuq8IBdaBe43SMFhhNKGHrZVyLU9x2/0PwIv9WP7uw0fynCodZ97ofn6Clt+hRvXPutPibFg5bdZrVOfebp6+2arjtDqUOvvYqHJDHEyOP6hztWzsv9cyTXGan/XgLh/blrXXlgRiqKG8T1zI5lZn/p6YDwnplvZKB5GMgbYSD+oUYQsLtlKlOYE+ePF7nRMKRdNsVCg6n7IBiDIBVekETDsgnpnvFmA65DHarWSfKVlY2xHlVrEUzMHnXrq26MqP8Vl3M7PLi9T+IMtnW6r7X+Jyuh1CQv8h7mRFJi3viBn13IMSHmZC0/622pfWNsyVhMLPZ9erMTWaDqNVwZutERCMcNva4Xedoo5uPmpafx/EWDupUrJhRKSvT3ZgRp3Li3kN3RrOfU1j+n3wOBuuMdUYGUo+BtBEOR44cMjhcW7fd6csLvmOntoa43377Vce4x4wdbgiHFa6tbrQgCgfkVXVksLieVRkSZSur9HF+9+4dOrvb5dcqHjMBBMasrvfrfKKFw+jl+sHDWFfBa1munWlcAXrUUueuRDes0qcNwdF3ovnYhanbjOKkw0D7mZXQnUkWRdiPRjiMajpMJxzwhT47yz5trzaUr1fvt7feesVzncjxqfvbem/WleeRAQ/6Fr/ZGjGa+LUbG6Xmkcep54ywTlmnZCA5GEgb4YAVlNU++ZhSs1Hjuq5eipgiFbMzWYFtNq9/h4rWltcjHgyo1V6a2nb06KGWYRIlHLDuhVU5zc6/++4bunJgylWz67RzibCVlpbZdtHiubr8wvYjRg62zbNZPGblaN+hlad4wFWr1k1dh0m0cMAgY9W5btnD29dnfNlXF2iDg56VY/2QzM6vJja/rp/GFTMqWa04XdbAOEB6zbFckZNvnkZReXWBVgm1bNEIh5K8Ap2jDeFwbUP/Zm1T2YuncMjNCgu0MKAM2u/Glte75lPNq3pM4WDOo2onHtNOZIAMBJWBtBEOqICHH77P4DBCPIwbP8b2xYh++RAd79t0I5p00zhD3FjZ2Wp60meefcpwvV03JeQ/EcKhW7eKSL7wFXPmzMm2MyQhT6vX3GIox733bre1ZyJsZXfDwVHXhJq2RZcxJ6Gnxjnw2r6GeMDTfBdTq95443WRcQpIH1O4qnFbHSdaOJg55Bh3ULvp1a7zjLKYdVfC+AIzIZBfs7qA06869detNO+mpNkKszWpYTAwG/Fp12AL0bD+jDF+hI1GOCDOu3rdWelow+HGitJymn7ux1M4YGC3JhiwhYgoyDEfVxJNmSgc6AxFww3DkBsyEBwG0ko4YGrRr7/+1ODswXl7+eXjYuvWjQLdhzB96/IViwVmAPr44/cqr7cTDoDa7As0VpHG4mhYO2HYsIGR1ZbVL/Sa82rX2oD4EyEcVGcY4ufQoSfEuvWrxXXXj4wsTgcxNGv2VAFxoeVd3vbt18PRaYq3rZweMmZd11AG1DcceUwbq/2wkrZVfOp4Cc0O6Kq2c+cWMWXKBAExBqGA1cohGNVxLU4tNHLaiRYOSFtdS0FzzjGuAAOfFz7y71+/SeZdicxaHRAPHPjRyzIj6y607VdDjFmRaRgQjevQ2pBXpBcAsl2wX7eFsdUBYdHaAZEybXuWuPXZHEPrh1YebKMVDp1qtdM53HC6a+bmW3Kj5l09njBhrMBUzWY/lR8442bXaefw3FPjtzq+v/89unJgZWyra6M5T+EQnJd/NPXHMKw/MkAG0ko4AHi0LsCZ1xw8L1sn4QDRoXaHchs/nFSnG7IqhIPb/GvXQXw5lQP/x9tWTnlAFzW3dQVn3yq+evXLDYPDNVu43QZdOBTXNnY1kp1teX/aNmsndcRi45gCOazd/qDZzmMiUEe9Jxi7VtnFixme5P+jFQ5I+7lhh3RO97gWYy25seJJOx/tM8qMOUyhrMVrty3NK9TlH+KndWkzV2Ht4pX/w3giszziHMc40CGRWeE+eSADwWQg7YQDQITTaDaNqNULTTv/zjuvOb5Eu/foJOxejlpc8tapa4928wRdOBw5etjRPlpZsI2nreR0rPZ79uoisNq1XBdm+3bCAXHD4dl9307HeMzixrlTp15wbbeqaHFAGRu0vdqye4/seNsJB8TTZURGpPVADmO3j5aGisHeBhq37l3DVRpT7soSg2frxQy6YVnx4nR+QovrdI53LKstuxW1VkzJ590KhxltJuvy7/fsUOW1ii3vEbuZ2Jzszv+D6VywXlgvZCA1GUhL4aDBvGz5IoF1E+SXrNn+p599KLComdsmf6zhcPz4c45ftCEwRo4a4tpReeyxPbq8onuVVha7rfr10q5LFBbLW716hYCDqq59YWYbnMN0pgMG9nGVFzWf8bKVmo7VMer0gQd2Rcpg1Y3NSThocffo2TkyDsaN04e00AXMS/0jnZMnj+oYkOsE6Wp5icc2O6+aGHtLpsCUrGYDiyEAnIQD8lXe+GqhLuxmJh7Qraikrn33JKtyYjXpSRuzxKqjxq5J6LbUdeS/xMi4NfqZm1Y+Z1xgzioN9TxmUlLXdOhXv1dUdeKGIbnu7fbdCIf87CxxZswpnXDoWqdjVHlX7aIdz5s/05LdqdMm+pqWlia3qem4sF5Zr2Sg6hhIa+GggQfnddCgfhGHee+jDwo46PiCvHDRHIGv0tp1Xrf4Eo3xADffPD8yXuLo0cPirrs2RLrplJQWRB2v13zEcj2cYdgBU9ceOPCowMJn2KL/NKYk9TIjkF0+UsFWWvlQlk6d2kYGSe/ZszsiIjFe5s5Nd0QGnFsNmNfCp8sWsyo17VRDDJgWFphOFS0A10wJicYVNQRWg/bLDuGsaqJeq6tFaYPqIpypjxcLysmiJZoF7uR8DmrUX+d8Hx5q3c1NDlfV+2prw739dvpmf61sVuOKMN5Ju4ZbPZ+0B+1BBshA0BigcAgTyqBByfyQyUQxoK4cjcHZsaa9/9q9OvEwsGHfmOOMNU924c1aGxoX1/M9z1ZdOG8YN9r3tOzKy//4fCEDZIAMRM8AhQOFA1/aZCAtGajT3DgLE9atiPWF0q6spU44PDvsYMxxxponu/Az2k7R5ffWzst8zy/GlZl1p3Kagtou3/wv+hc/bUfbkQEyEC0DFA50Gn13EqKFkeH4IIuVAQykLmvobo2JBY/ouylhIHZBSXRjKtR8j2gyWExpPTHyw776f5COBzToU5lX5Lk4N8/3/GJ6azPhEM3Ci0GyHfPCZxYZIAPpxgCFA4WD705Cut1ELG9wXhzaoGt0QeozISQwoFutH0wviwHe8tgG7A9f5G7KVzU+HhttrNrEbFA/1jpRr+Oxsy1pI9qIDJCBqmSAwoHCgS9vMpAyDGjCQRYFmGJ1+cEcsfRAjth4Vr9ug3YdZonyc0B2VT7Ug5g2ZmnD4m/yL9qZ2IJYPuaJjhwZIAPpwgCFA53GlHEa0+WmZTmtX1BmwkETB1bbza/niRbda/A+4LOQDJABMkAGyIADAxQODgaik2btpNE2tE3QGFi8Tz9uwUosaOdn7MwSuYX+jGsImi2YH96fZIAMkAEy4DcDFA4UDlTXZCClGMB6Df1uConZu7MFFpFbdzpXbHkjL/JDi8TMXVli6PxwZA0Jvx+ojI8vaTJABsgAGUhlBigc6DSmlNOYyjcry8aXERkgA2SADJABMlCVDFA4UDhQOJABMkAGyAAZIANkgAyQAUcGKBwIiSMkValsmTa/rJABMkAGyAAZIANkIBgMUDhQOFA4kAEyQAbIABkgA2SADJABRwYoHAiJIyRU+cFQ+awH1gMZIANkgAyQATJQlQxQOFA4UDiQATJABsgAGSADZIAMkAFHBigcCIkjJFWpbJk2v6yQATJABsgAGSADZCAYDFA4UDhQOJABMkAGyAAZIANkgAyQAUcGKBwIiSMkVPnBUPmsB9YDGSADZIAMkAEyUJUMGIRDVWaGafNmIANkgAyQATJABsgAGSADwWSAwoEtDmxxIANkgAyQATJABsgAGSADjgxQOBASR0io+oOp+lkvrBcyQAbIABkgA2QgkQxQOFA4UDiQATJABsgAGSADZIAMkAFHBigcCIkjJIlUskyLX07IABkgA2SADJABMhBMBigcKBwoHMgAGSADZIAMkAEyQAbIgCMDFA6ExBESqv5gqn7WC+uFDJABMkAGyAAZSCQDFA4UDhQOZIAMkAEyQAbIABkgA2TAkQEKB0LiCEkilSzT4pcTMkAGyAAZIANkgAwEkwFH4bBy5i/EPSsvFduW/UysmfNzMX/Cf4jObS8XmZnBLBBBY72QATJABsgAGSADZIAMkAH/GXAUDt+dPF+Ic+cZfv88e544uO2nomG9P/KLNVstyAAZIANkgAyQATJABshAijMQtXDQxAQERK3SKwlKioNC1e6/aqdNaVMyQAbIABkgA2QgmRhwFA7fnLjA0NqgiQZte/Sen1A4UDiQATJABsgAGSADZIAMkIEUZsBRg9nIvwAABzhJREFUOGgqqLz0StGz4vdi7/qLxf+eNXZdKiy4iqCkMCgaB9zyywgZIANkgAyQATJABtKTAdfCQQYEA6W11gZt273D7ykcKBzIABkgA2SADJABMkAGyECKMhCVcKhZdJVBOEwb8ytCkqKQyKKR++n5hYH1znonA2SADJABMkAGohIOAEftrnTnossoHCgcyAAZIANkgAyQATJABshAijIQtXD4x2n9NK0PrLmEkKQoJPzCwC8MZIAMkAEyQAbIABkgA1ELh+9fonDgDcQbiAyQATJABsgAGSADZCBdGKBwYCsBW4rIABkgA2SADJABMkAGyIAjAxQOhMQRknRR0SwnvxiRATJABsgAGSADZMCaAQoHCgcKBzJABsgAGSADZIAMkAEy4MiAb8Jh34aLHROjgrNWcLQNbUMGyAAZIANkgAyQATIQZAaiFg7fnLhAt5bDSw/9iMKBSpUMkAEyQAbIABkgA2SADKQoA1ELh3ef/qFOOHzy/IWEJEUhCbLyZd74ZYYMkAEyQAbIABkgA4lhIGrhcGz3j3XCQZw7Twzo/juKB4oHMkAGyAAZIANkgAyQATKQggxELRxGD/itQTig+1K39pcTlBQEhUo+MUqedqadyQAZIANkgAyQgaAyELVwQIHO7r3IIB7Q8vDWEz8UB7f9VGxecpm4Y97PI7+gGoD54s1JBsgAGSADZIAMkAEyQAacGYhJOMDAy6f+Unz7on6gNMSD+mNlOFcGbUQbkQEyQAbIABkgA2SADASVgZiFAwpW0eoP4sG1l4h/njUKBk1ABNUAzBdvTjJABsgAGSADZIAMkAEy4MxATMKhaYMrxGuPmXdX0gSDtmVlOFcGbUQbkQEyQAbIABkgA2SADASVgZiEwxcvXGjokoRWh50rfiYweLq89EqRn/+nyC+oBmC+eHOSATJABsgAGSADZIAMkAFnBqIWDitn/MIgGv528gLRqskVnFWJsyqRATJABsgAGSADZIAMkIEUYyBq4XDyAeM6DtcP+g0BSTFAqL6d1TdtRBuRATJABsgAGSAD6cBA1MIBK0Vr4xewRbeldDAYy8gHAxkgA2SADJABMkAGyEA6MhC1cPj+pfN1wuHUgz+icGBrAxkgA2SADJABMkAGyAAZSFEGfBMOD6+7hJCkKCTpqKhZZn5JIgNkgAyQATJABsiAngHfhMMDaygcCJceLtqD9iADZIAMkAEyQAbIQOowQOHAVgK2FJEBMkAGyAAZIANkgAyQAUcGKBwIiSMk/FKQOl8KWJesSzJABsgAGSADZCBaBqIWDv9zRj84+v7Vl9IBpQghA2SADJABMkAGyAAZIAMpykDUwkGeihX725f/jJCkKCTRqlKG4xcNMkAGyAAZIANkgAykDgNRCYd+XX+nm4oVwmHyyF9TOFA4kAEyQAbIABkgA2SADJCBFGXAs3AoLLhKvPv0Dw3CoWG9PxKSFIWEXwpS50sB65J1SQbIABkgA2SADETLgKNw2LDgMrF3/cXiyK6fiNf3XyT+efY8g2j4x+nzKRooGsgAGSADZIAMkAEyQAbIQAoz4CgcvjupHwStjm3A8bKpvyQkKQxJtKqU4fhFgwyQATJABsgAGSADqcNAzMLh2O4fUzRQNJABMkAGyAAZIANkgAyQgRRnwFE4fHXsAvG/Z8+L/DAF63enzhfvH/yBeGzjxaJXx98TkBQHhF8JUucrAeuSdUkGyAAZIANkgAzEwoCjcIglcoYlnGSADJABMkAGyAAZIANkIDUYoHBgiwFbjcgAGSADZIAMkAEyQAbIgCMDFA6ExBESfiVIja8ErEfWIxkgA2SADJABMhALAxQOFA4UDmSADJABMkAGyAAZIANkwJEBCgdC4ghJLMqUYfllgwyQATJABsgAGSADqcEAhQOFA4UDGSADZIAMkAEyQAbIABlwZIDCgZA4QsKvBKnxlYD1yHokA2SADJABMkAGYmGAwoHCgcKBDJABMkAGyAAZIANkgAw4MkDhQEgcIYlFmTIsv2yQATJABsgAGSADZCA1GKBwoHCgcCADZIAMkAEyQAbIABkgA44MUDgQEkdI+JUgNb4SsB5Zj2SADJABMkAGyEAsDFA4UDhQOJABMkAGyAAZIANkgAyQAUcGKBwIiSMksShThuWXDTJABsgAGSADZIAMpAYDFA4UDhQOZIAMkAEyQAbIABkgA2TAkQGDcKhfr0jwRxuQATJABsgAGSADZIAMkAEyIDNA4UChRKFIBsgAGSADZIAMkAEyQAYcGaBwICSOkMhKk/v88kAGyAAZIANkgAyQgfRkgMKBwoHCgQyQATJABsgAGSADZIAMODJA4UBIHCHhV4X0/KrAeme9kwEyQAbIABkgAzIDFA4UDhQOZIAMkAEyQAbIABkgA2TAkQEKB0LiCImsNLnPLw9kgAyQATJABsgAGUhPBigcKBwoHMgAGSADZIAMkAEyQAbIgCMD/x9s2x+rIQ82+QAAAABJRU5ErkJggg==;" vertex="1" parent="IFifXzNAE3G-wkO_UbDk-1">
                    <mxGeometry x="160" y="10" width="359.08" height="90" as="geometry"/>
                </mxCell>
                <mxCell id="MlxnGkUc1gx8y1TMcXvj-2" value="1" style="rounded=0;whiteSpace=wrap;html=1;fillColor=#ffffff;align=center;verticalAlign=middle;fontStyle=1" vertex="1" parent="IFifXzNAE3G-wkO_UbDk-1">
                    <mxGeometry x="200" y="200" width="40" height="40" as="geometry"/>
                </mxCell>
                <mxCell id="MlxnGkUc1gx8y1TMcXvj-3" value="2" style="rounded=0;whiteSpace=wrap;html=1;fillColor=#ffffff;align=center;verticalAlign=middle;fontStyle=1" vertex="1" parent="IFifXzNAE3G-wkO_UbDk-1">
                    <mxGeometry x="200" y="240" width="40" height="40" as="geometry"/>
                </mxCell>
                <mxCell id="MlxnGkUc1gx8y1TMcXvj-4" value="" style="shape=image;verticalLabelPosition=bottom;labelBackgroundColor=#ffffff;verticalAlign=top;aspect=fixed;imageAspect=0;image=data:image/png,iVBORw0KGgoAAAANSUhEUgAAAzQAAAE4CAYAAACNL7YlAAAgAElEQVR4Aey9d5xVRZ73P7uzeXd2Z/Ozz+zuBLXP7W7oCDS5aVI3Hegm59BAk3MWaHLOiiQVRCVINKCIIAoCigKCoqgYxzTmNI46s8/+6vf6Xqfaqjrh1rn33HvPuf3547xOqlNVp+pddepzqupbPzJCv2LYkAZgAAyAATAABsAAGAADYAAMBJGBHwUx0ogzChsYAANgAAyAATAABsAAGAADxAAEDXqo0EMHBsAAGAADYAAMgAEwAAYCywAEDeANLLz4K4O/MmAADIABMAAGwAAYAAMQNBA0EDRgAAyAATAABsAAGAADYCCwDEDQAN7Awos/MvgjAwbAABgAA2AADIABMABBA0EDQQMGwAAYAANgAAyAATAABgLLAAQN4A0svPgjgz8yYAAMgAEwAAbAABgAAxA0EDQQNGAADIABMAAGwAAYAANgILAMQNAA3sDCiz8y+CMDBsAAGAADYAAMgAEwAEEDQQNBAwbAABgAA2AADIABMAAGAssABA3gDSy8+CODPzJgAAyAATAABsCAHxnoUPRfbMaof2UbF/wju2vVP7B9N/+EbV3yU7S54tTuhqCJU8L6sXCpcXrn5J8x9tKP6rYhvf8DBa0e86DygXM0EsAAGAADYMBrBj459+O6dsf/Xv0RK277XynT9shq+Et25Pa/Zd899yd17yi2s+i4R8XPUuZ9vWYjFv8gaOppA3b22H+VCtvXz/4pClg9ZSGWCgTPorEDBsAAGAADbhh48La/k9ofV4/8Rcq0P9567M+ld1PFDARN/MpKwgRNRug6NsNow/YZ3dn5tMHss7Tx7Pdpk6XthNEvZaB2U7gT7TYj41fsd5f+VCp0y6b/M9I+hQXN6DE17OuvP6vbPv/8Q+R3kvI7MzOdFeS1ZAX5rVhGhoF8iJAPe/bcWcctMXz58jNIswhp5vU3JS+7EWvXvJJ1aT+cdWjZjTVs0AB5oJEHV196TmJ327bNSLfQr1ijvF8w6pkRG/vD+vyfwKcNtaPEd7I77laOHhqv6yjyLyGCpjKUyy6nDZHEiypm6Pyk0T/wQMcjk7z2k8ZyigXtywvonfE6jf3m36JFtey7776q27799kuUNY0GiVf5WNSsgi0adpTtm/sdO7SASdve2m/Y/KEPstYFxcgTizw5ffpEHbfE8BtvvIx0skgnr1glDodVLWPLR55iO2d9JrEqsrt/3h/YHTPeZyO6rmLp6TcgTyzy5JNP35fY3btvJ9Lpj+l076afSO2Qj5/6ceDTxqp35pWjf8HGDv531q7wv1l6evx6J7wq/0H2J+6CJjt0A3s7bVREMQNBkxjQGzf6Bft/L8hjOxdO+pfAVyRBLoSJiDsETWLKl5qXodB1bHLfbbaNQrGBSMdjetyMsqg0DCFoEsduv7KZ2qyK7O6e8xXrWzoN7CrsQtDYs5ubY26LLJ8R7JEi6ryZVBBp6jfNz+dxFzSrjBKTmKHhZkeNPmyHUcVuNyrrthFGc1SISoXoNTy71v699Ffkm0t/gjSPc5p7nYfR+AdBY/9hjSY9dZ9ZOOyI6wbirIF7USaFMglBkzh2oxU0XNyM6XET2BXYhaBxZveR7X8rtUc+ezq4vTRkDEAc+ULH25b9A8qDUB50v5vRuou7oHk9bYQkaB43+rP8UBoyOYGZLMKhzp2hyXnifRw7V8BBTR8ImsTna3XnBbZiZs+crxn91eYNQXXfp9NUlMs/1pEQNIlj107QHJz/v2Fet01/h+2a/QWjc5VZfl7Sug/Y/SO7EDTO7HYu+U+TCOjf7f8Gkh+y1KYKmnkTMPolkW2muAoaMgSgzpXpGsoLJKyJzJR4hTWu+t9NBa6sw38iP5IkLuOVz1b+5jfKYosXz2XLli0IbwsWzkG+xzHfG2RmMJpjwBt5fL9u3EXWNL91Xdo3zm3GNk++ZnJH82owL+H7xlCn0vZ13BK/ZODCinFcc2486qQPFzTE7opRp1nvkiksu2G2ZXoPqqhl99T+zpJdGmqpE16quxkydIDEbteu5UgXpd6lXhlRCFy6768CmUblHc3iLBUMHQSpjMZV0BSFGpgETS56Z5JWWGlymlhxYHxn7A2AIBV2xDVx+T2u50ZTQ+/uWZ8ysnCm5kODzEx2142fmNzXdFlucqs+i/PE5Wl9SOsmec1Zcaue2tzl5zS2NHRBRjDqQ3rhHWMvf3evlo0U/X9XfxS2gha0tLUSNIN6YG2/ROZjXAVNt1C+SdAk8uUQ1g+VTX7eLyQxQ8Jm+3KM7wQjPzCCtPAuLaysQ7Vs0sG2kbd69FMmQbNj5ge27pFX3uUV0jK2tOxfNsvELllJQ7rGlq466dcn1JgNN5qHt0FGQVzSPN5hNGvyc1PbZMvin8blXXTSNFo3EDTx5z1S3ngiaMiSWftQQ9M2xmhpEjRW7vi1lqEMVxA3DF3PKkI5bKLRmm02KtjdRhe20ShnE4xWrDSUzTJD17vyT00s6mHicaNj9T4JtoVGB7bNqGQPGL3YdqMyfN471NjkVn020ee14+SFNEnQ0PjVaOOR274tyy8rrdsy8hq69iu/tFPd8+RXelYooh+hjOtZs779WYfaJazzLXewHvuOsn7HL7A+h8+wqtvvYcULVrCCnr0i+uP03jlFhVK8QpmySdJGFRWsdNUtrNvOB1i/Y+fDYVduvpu1nTqLhRokd12R9IzrWZs2zSNurQubxZRGTulX3+/R+jJ8iBnf3zT+km16l7cZZHLPn8vNdjdEt6RTO9a9R6Vpo2Fbfs+X7JyMiNwS2wVN3aWJ399bjV+PUCO2yLAXv6r7ZJ83ym1q4ndxzTHXvNFwLCt2W7Vu6tqvRKdJQUGuFrt5+e6/k07vcjGtWmpj5cVhBEwiwvjyvLwu3ksPB2+hTQiaFBE09GdAnSsTzbnuOjTpoeuYlfU0qzAXGO1ZSBmz6VRBiPd+kzZGei8uVLqH8tlTaYOke2rYVAnQnw3Rv2Qen9r1N9JfEDLdHEt8Bj91jQ1/5fO6rePcpa78azlsZN2z3J+O86z/6jUoyGftZy1gfR46y2pe/tT0HH9e3A88/SJrPrDaVZx4egy9/K4URsni1WF/WgwawgadfVm6J4ZJx8Oe/w1rPXJsVOHy8GPZdywuktY9ENeeEY+xDk38Kt/hXVeYGngDymdZMpGRkRaeZM0FjLofVDHX8jkrRpo2y7fN+w8+eFvbHyu/E3Ftwy1rbeMvspuK69AUhEJsntGeXU2rCX9X6NuTiDT3IgwaRqlyu3LUGVfxX7psgW3eHzv2oCu/vHgnt37QYq8io3bHXq9Do4qNeBhcSkQYFw79ldQ++f3zsbVP3OafF+4haOL3TdXNH096aBIpaJqG0tkJo5+jmFDFxRGjD2sccv/nXBU0Q41mjDbVf7vzu4wuvqmI1Yl37z3xZzHFrdehE1LDvuuOg678q37mDen5YS9+xDJyzL1gBHLFhu2SW1VEOJ1Tr4luYSB3GbkNTGG1HjWOla3eZLpuFy6ljZswvXQLQZP8SnVRzSOmBp5oCEDM76n9dpjcio3D2up7tVlq3qKxbaMKgib5XIj5Tsf0o61vqDE7YPQwfVOCJGhKC/uZGJ7S9w5tbiktVqxcbMsuBI09u4kQG4kIY+OCf5QEDY0g6dTuv1wxpJavRJ/37Pwz6R1oLlDQ3iHRaeZ1eIESNPQXSxUZdmJCvU6Le7r9e6GGtcIoNn141HDEc78Imuxss330o9v+NqbKomzNZqmBP+Dx57T9azNhmvQsCYMOcxbZPt/vkWdM7u3EhNX1xp072/qtFigazqb6QcPa1GtO56Urkrc4YlAFTbNQOqNhnV5vsQ47VfnQOd865TWpgXdg/v9Y8teqSUfJnShk+PGGCVcsn7WKBwSNfcPPKr2SdY1YX2J0ZOqSBuK3IyiChizx3Tr1TRPH3Tu666WGoImO3USIjUSEUdXJbCFs86JgzaOxGtYPK7LRcR1t3eyJoCGhUBXKM23zjfYmAWDljl8rDmU5frxvNspM/tEinbVGu/BcGprLUxnKZVbh0seCBImbhFIFjfjBoeNzaYPYFqOCTTEKWY3RPDxkgObxcHd+ETR9u/xf6c8B/f1YMjW2FXkLx0yQGvnDrnyolbY0B0Yd0jXk4q8ZXbfLGxrGxQUEhdNl2z7Wdtrs8FyZBgWNGM1xyWnTmrWfvdDkNz3X456Hbf1WwyxZvKYuLB6muifxRvN12k2fEx4KV7VtL6t+5vW652homupvos5pDk3t3Jls+YpF0nbixMPSH1C/DTmjXlRebrzcR6pT4pEvqilbsm5mFY7aEJw1aJ/JYhQZF7B61upa0AUNDZkjs8wquzTETBzCE8QhZzRMmkYy0FxLHb73G921892KhURcK8hrydaNvWASM2Sxz234QRc0XbqWm7gljr/66hOJXQw5s2/gUo8GtU34RsPk3XKUTPf3rJcXLaf3yMiwf99kxjVVw/ZE0NglDs01UStvO7eRrlPvjOoXCQ4yCmD1LK13Q2JHfIbO3fTSOAmaWUZby3ApLmTcYI/RLWygwCpuib42bcS/1VUSvLIYO/jfbeOvE7+8jh3qGvC8wW83ZEz0j0QHd8/3rUbYjxcnsTL0ufcYDeMKC4V05/UNMvOyGAkk7jftSWyIcXA67nnwuPSs5M+Ft1jjykprv9KvYzSPiOb4ZDayZtIp3Hjf8/vCmqkkaKhHhvew0J7WmVHzt7rzfMkNLbKZkWGY5tPsm/ud6VnVL34edEHD30PdB3lhTfoW0I80GiEgfousjq+kDQv/FKNh1WoaJPOcjFbQHDDayJT4rIF72fpxz0r8ct5pwU0aguY2vkEXNHbvG++FNRPRe5KIMCj9aN4Mb5/Q/vnDf+maI7t8iPf19PRfsW8uy/H/nyvBmwcU73SKt/+BETRWvTMDjCaOwFOvifrhWGmUOD4jJridoLETUeKzfjpeO+efpIqCKoseFT/TTgerd6EeFbGxT8dNujn/VSQrZtTDIj438NQLMcXDKm40b0YMg46t3Fldq77wlulZer7LHftZKDNN2x8rv5N5DYImcX/KeOOO79eMeVrihiyXqaKnomhw2M0dM96XGorUQNTlBoImcXnslCe0oDTNtdQR6fST7TajM+scytXOZ6ew43GPcxxpTz2T7Vt0jeo9IGiiYzcRYiMRYRC3v70oWzp7++SfR8VSPMqAk5+0JAYtBiqKMTp+at9fByL+Tu8WtHuBETTqHy4afxzJehl9WFRRQlZkdDNJfZbE0e2GzR/6KC2p6cYlFne715m7Qls2+7l2OtiFrfaEtJte6+hnyZK1JrEQSQTZhe10vUnXrqZwnNzze2RyWRVCdD7g5PPMiNAzxP3w697vgobmFJw2Bni+FYYyHZn0Or9oToHa8KMV18Vw6Fx0s2zE43X3N016WbpH7sRnnY4haKJrFDqlqZt7bUKZbK3RyfTNUX+q0flRow8bYTRnDWJcWsBN/KJ1K7Jqd0wLyRL70YYBQRMdu4kQG4kIg7j58OyPJVHw+TM/jpqnaDmM9NzM0f/Kbl3yU3b7sp+yh277O/biQ3/J/nBF7pkhMUO9M02bxN7GihQf3JfLTSAEDU3sVT8K1ADSycw1RifTs5GEEPfXStC0cLlWDvcrmftHtv+tVFFQgfMiPn2OPCkJgKpb99j6S9bDaq5+Irnvff8pW/exxK/NhKlSOGRBTcc/EleqoKE4Z7VqrvW8ThjJcuN3QZOsdPE63KyGWSZBIgqWzkXV0v398/7Ashtm1/G1duwz0n1qQIZCzsMs+TvkN8pi11590XK77fZNdWFw90HZ+33IGS1seNzoa/rOqN8s+plGywg099mQskgc2IkY9fqWya8ymlcTyT+r+6PH1FhySzyPGTs8Kj+twkn0tViGnA00CthYo6XjphqWuNEocnTfXxnVkogwdNP8zRN/LrVTaAiX7rOJckfWYdWeGPH8f6/+iJHBpcaNfuG7uCcqjZIZTiAEDVk+Uj8Oumu8VBtNTc/qjlFWBQ39VUtmZkUb9r2bfmIqhLk5sRe4zpvukgQAWSOzi2P5+tsktyQcctoW2bq38ierRTNGJpRp4j4NAev78Dk2+NxrjExAixsJGFGYDHryFa1waLFO8Tk6tlsbxyp+fr4GQSP/yYlXXlmtycGHnNEcGZorIzYE+5ZOk9gkt+J9Oo5XXIPir98FjfptEs9pSBn16pPhm6CktxrPeUMOs/lDHwxvy0eeYrdNfYvtrf3GxCmxSnO+ippVBPZd1XeP9TwWQXM+bbCp7SKyFe1xvrCERSLC0E3Dd0/JYoGGoOk+myh3ToKGemsmDfs338U5UWnjh3ACIWhoQUu18OpaL6Kxyeqzuh8XVdAEcbgZQbZl8U9NgsYLc4JFk2dKAoCsl1lBTQtjqgtikiCxcmt1jYRP9z0PSWGpwsPpvOd+vVWru+9+0BQGWVGzilPQrkHQJEbQEBeqIKE/13R9xoDd0j0rk8w3jb8suXEzhyZoTOrGN4iChoZIjzZasIYBGFKmmw+qu64dRjGy4KfyTr2ODRtYrymm+pHq534UNOKafPESNGIYunlMQ8zE3o4PzsS2Vp5uuG7cXb7/L6U4ivHlxx8/9WM2rjo2o0tu4gS3P3zbAyFoJhitTaJEt8CQlRlV0Iw0Wmg1UlVBQ8MFggjP/In/YiqEQ3r/R8zvQuu7qELCauJ81W17JHckbkjkREpLsljmZHVMDdvuvNPSdRHDorgMfuqaFM94GCyI9M7xug9B80OlF6805v6SCBEbeTtmfsBaFxRL18hNkzzzUEayiCY+a7eGDQ+rPuyDKGjom0Nm/WcYbVgj4Y94quUXDYe0mvc1rf9dWnVuqqWH+j4QNPr1rmol7Nojf+E7hsiaGa3rRyNcaDmMDfP+kamLlpOwIRPUXvw0VnnCuTNPgRA08yzWsyG7/jqZmxO6wSRoZhp6Q51UQTNKUwjpxCuRbob3+z8mQTNrzL9qpZ9TPMlqmSoi8stKJX9pmJjqpnTVRsmNVRjp2Rls4Omrpme5XyQ++h49x3rffzJs0rnngeOMtn7HzpueadZvQMTwrKy2FS9cGfE5q7j78RoEjXNF6GWe0R9qUZTsmfN1eJiOeG1kt9WWbNEaHqI7shzlZdyC6JffBQ2ZW1Z/mqnnB40e4XVoyFBNEPPAKc552Y1M6ydBiH9f38QiaGYbbdl6o9RxUznbbFQ4uif/skI/GG9IRBhO7Ij3/t8L8uT6p/cHw0pYZuYv2bP3mq2cvXY8GFbaxDwI+nEgBM04o5Xpg0Hr0ugkfutQpulZmsSp86wqaMgUp85zfnPTrvC/TYLmzlX/4Mm70BoxXGTQnibki+/fffdh6T4tkklCSHRjdWwlTGhuTKvhox2fp8UuxfjQcUZew4jhNSovNz2nijOreAblmt8FDU1m3W5Uer4lYwI29ciIokQ93jb9HVseVTFE8xWCwli84ul3QUNGZmhY9D6ju+lbozY46ZuywShjnUI/GIKIV7ol0l+aY6NyXpDfqt6zG4ug0cm/RFggS0QYNImeD9ni+/u3/F1g+Mlq+EuTtTMSaDp5CDfe/WwMhKDpEWpk+lDofhBovoz6UdG1+Z8qgoYKjGpakCaweVGQ+j96URICFRu21/lLc19UcUGCI1K4VtbGqEdGx9qYKoTs5vWocSCT02JcaVgc9dqo7oJ67ndBo7Nmh1qOdc5159p5ma9WE/vFxl5h006WXOVm5ZkahaKFNC/jGCS//C5oxLSkodC1RjtGFs0i8UkNRfpD3kTz55wYjt+Oh1QuMrFb1U5/iQS/vY9X8YGg0WuskjlkLmT4PmgT7A9tNBtfIqHjFUvwJzJLgRA0rSzmwajmB+0ym3pV1A+L7gcklQTNyw//hVRh/O6SNxZEumzbJwmB3od/WHOj16ET0j2yRKazngtN4pfExdVPGJl9tstjfp3m3IjP0XGfw2ciPkfPd91xUHqWBBT3NxX2EDSRK0Ov8pnmD4gCRjye1u9OW65okrXolo7H99ps696r+PrdnyAJGjEtu4Xy2S6jq+n7o36P6PwBo1d4Mc6gDkmr7jzfxO7ginn1nl0IGr169+Ft8tISNAelYcDEwOyxZlEW6wLmYn2C48gsBULQUCWvfgTWGfJcDbvMpjGl6rN2btXrqSRoti37B0nQ0F+QRnmxm25uP3uhJASqL3w/RMZqCFeLQUO0PnCq2WUSG2reWJ3T3BxV0JSt1lt/Y+DpF6VnaaicVRhBvVZfBU37UOThhl7naXmbQabGHYmTXbO/cFx8kMzjqoLG7crr58+fZZ9++hvLzev3TJR/QRU0PH3yQ2mM5m1eThti+hap3yb65tA3qyyUE6j6p7b6kInd3iVTtN8hOyeDffDB25bcXr5svxwAT2O/7iFoIjdCKe9Uk81kKcyveWoXry6lPzO1sQb1iN34kl14uG5mKxCChjJOXUCKKv5If7PIZCatAyB+NGgCpy4IqSRoqjr9p6mwUTevblrYuWvaq48kBEhQUC8MTdgXxUX/E5e0wrKanK9jpaxxVRcpPB52i2q9/FbNSneoXawVX7t08dt1vwuaylBueNL0IKPAs32vUHJMbtOK6TQpWhUnJHTsuKBnaA0P8Rk6t3Nvd53EzHfffWW5pQd0CGXQBY2YV8T5DqNK+iaJ3yd+TN8e8Tk/H2dkpLGdsz6T2CWO3cyhadwkx5JZYvnDD+3nnPk5XShuEDTmRqdVnqkGAY7v+NvA8M/fp7yjuY0FQaOX/zwNY90HRtAsN4pNH4ExhvOqxFOMQtMzZDFNN9FSSdDQO3/97J9KooZsquumhZ27zPxsk5BoM2Ga6VqjCr3F1sjsMxcjfN/1zkOO8aRJ/0MuvWN6jp5v0DjX8Vl6r9z2bU3PNunSJeJzdmnix+t+FzR+TLNY4rR6zFOmBp7T8DGr3pklwx91zSAETWI/oNEyQtY3pxqFzG4dkGQImqb5rdnQqiWu15CxMghAAsdN2kDQRMdtIibsxzuMaSP+TWqX0OiRIAoBCJroGHZTT0RyGxhBkxdKM/W20N+sgUaBZcVZYzQ3iRn6SIgmCyMlTqoJml1r/16qOP7Xo3Gq6hAxLkT4nswpR0pr8T5N5OfP0p56T3KKCi39IJPMZDlNdM+P6bror92xlQCzWk/H7vkgXIegSWxl26ZZuUnQ0F9rq4nS/cpmWrpt0bitFr8ifxA0ic1nMe2jPabhZbcZnaXvWzIEDR8qSWskrRj1BCtp3duRv+aN2rCVo85YsktD0NykBwRNdNzGW2xQHsY7DDJQxA0B0J4W2HTDjl/cQtBEx7CX+RcYQUMvbdVLQ6Jmo1HOSMCQRSMyybzVYt4MuXPTO0PhpZqgIdOINNlOrDyWz/jnmCsPWoCSiwirfXZr5540FWiayK/6Q6Kp/Y3zWV7HDox6e9rNmBted0Z1J57TsDfVb6vzyq27pPDCxgtCyS+cVnF1utard1e2ffsWy+2VV65IQzq+/fZLS3f8+coqvTlqTvGp7/fWjbto2dhbNOwo610ymY3uvo5tmvSSpZtlI05qsaumcVAFzbRpE2x5/OKLjyR26R05p1Z7mo+hpksQzulnGy0ifcYYyK6lDU/4O3BBIw573Fv7Dbt16puMeJzS9w42sfetbFHNI5aLafLnaO0kstjnJs2DLGjWr19py6M6/PPll5+3dbtipfthzvEWG5SH8QyDFqlU2yRbFv/UFTtuOIun2+K2/yW1raidFTRLbfFMn0T4HShBQ700OuYw+ThkcU8TMrOFBaV0EjfVBA29Mw0zEwXNW4/FvvhTt50PSIJAFBUkFnTSWnRT0L2HrX+i3+KxOgeG7lXcdLtW2P0fuyyF12PfUa3nxDj74fj111+SGn7qx9TN+apVSwKZBn7IBx6H7KwcRotq8oae7p6G6zRsENmqHw9H3H/++Ye2DPh5Ds0333xhG2833JLbFi2bBJ5dNyMJxPyP5dhK0Ogyy91R705RM73hxWJcWxc2s81/P8+hGTSoj2283XJLZVdME53jGUYbtsooqdto3rDOc27cxDOMtXP+SWqP0KgREjlu4ucXtxkZv5LehdpZq2f9UyDfxS9p6jYegRI09HIkSvYY3UzDyUTxoh7fZXRxNdSMJ2IqCprqXv9hKnTtC/8rpkJXvHCVJAi40Ki5+gkjU8o8Pd3sy9ZstvST+y3uaYgaDT0Tr9Fxq5pRWmFTPMVnixeu1HrOzfskwu0bb7zs2ccVgsabHjpac8aNqCFLaNEMNSO+mjbLt83/jz9+z9dMU4+h2wagnftUEDSJqC/UMGIVNLSgbGlhv6g4U4fEinn7xBPu55Kp7xav8+oh/T3jNhpBE6/3SpS/Hz35Y6k98uTev46Kn0TFN1I4/3PlT6T3eeyuvwn0+0R6X7/dj6ugocUvVXHhVQLQhEpVcKhhvZ02io0zol+tWPWf1rTxKv7J9Oe1438uFbrzB/8qpvcic8yiIODHJYvXxORv4ZgJtvNjKAwSIpVbdrL0rHSWV1JsikPDZpH/1KZnZ5ieK+jZK6Z4JytvIWi8ESFe519Ww4Zs6fATjP5e8z/Z6p7u0eTqBpnRD5dasnS+beNqTu0MXzMNQZN8djMz01mv4ols4bAjllbLVGb5+e45X7E+nabGxNeZs49bsktcUO+N12XSK/8gaKLndsKQf5faITT0rLDFf/s2r3WY+eK8bHiJepw6l/xnoN9J57394iaugiYRL1kQCrG+ocbh+TFkv59Wae4dasxoxeZEhB/EMKiAicPO6JjGf/rxXdKzQowEU/GCFaxs7RZWdfs9rHTVLazViDEs1Sbu+zH9EafoP9hq2tEwsgHls9nUfjvYkuHH2eKaY+F5CWQUIBYhw8M5d+4Jy0Yhre/B3WDvXX6melrm5zRhXdoPZ7Ro5oReW9jcIfez5SNPsVmD9oWtoVUUDWaNc70RG5999oEluyUFXHoAACAASURBVMeOPwR2AzifU6dsqL0z92/5u8Dn9RO7/8bUtqL21XtP/Bm7dN9fMTJHTe+ZmRnMYXU6+ZpMN4EXNMlMvCCHfWbPX0sFjwpbkN8HcUdDrb4zYDd/ZvKUcSjbKdooTAXm7ebPUO8MDaNMhXfEO8jfJ5osL/5U/f3zf8KyGga/kV/Q+OdMXVNHfE9+3KPiZ+A6DnUyBE0cEjUIlVfTJj9n1B3KCxjtyzqgazQIeYc4yh9HpMevWFHblpZ/uN959w18OOtpHR+UcrFmzTJLdg8fPgh2U5RdtXdmTQpNnl84+V/YH5S5NGI7i44haOLzDYegSdEKQ+djNnP0v7IHtvxdeDu08ScsP+8X+IDUYx50mIGb+FTEsabruvUrLRuFo8fUoEyjTPuagQsXnjSxS1bvyJRzrOUCz/uzvjpwy0/q2h571v99yuUzDSnbtPAf2csP/wX78sKfhgUO/UCmeUK0dStHD008yiYEDT52KVeZxKOgwE9/fhiRL9/ny6VLT5sahW+++QrKNup33zPw5Zcfm9g9cGC37+ONugffBDDgLwYgaPDBw4cDDICBgDNw5cpFRgtOihtZYMIH118fXOSHnB+0CKrILB2///5bLDcvunWYkL5y+iI9kB71iQEImoA3ZOoTrHhXVM5gAAyAATAABsAAGAADKgMQNBA0+IsLBsAAGAADYAAMgAEwAAYCywAEDeANLLyqOsc5/tiAATAABsAAGAADYKD+MQBBA0EDQQMGwAAYAANgAAyAATAABgLLAAQN4A0svPgDU//+wCDPkedgAAyAATAABsCAygAEDQQNBA0YAANgAAyAATAABsAAGAgsAxA0gDew8KrqHOf4YwMGwAAYAANgAAyAgfrHAAQNBA0EDRgAA2AADIABMAAGwAAYCCwDEDSAN7Dw4g9M/fsDgzxHnoMBMAAGwAAYAAMqAxA0EDQQNGAADIABMAAGwAAYAANgILAMQNAA3sDCq6pznOOPDRgAA2AADIABMAAG6h8DEDQQNBA0YAAMgAEwAAbAABgAA2AgsAxELWimz5jE+FZW3jGwCQAVX/9UPPIceQ4GwAAYAANgAAzUJwaWL1/O4rklOy0haKDGIUbBABgAA2AADIABMAAGUpiBeIoZ8huCJoXhSXbmInz8fQIDYAAMgAEwAAbAABjggua6rJ8zLzfub7IZQw8NBFXSVXWyCwHCR0UPBsAAGAADYAAMpDIDXHh4KWbIL+5vstMOggaCBoIGDIABMAAGwAAYAANgIIUZ4MIDgkbJZG4QgPYwCoC/GslW5ggfDIIBMAAGwAAYAANgwJoBCBpFyHBQIGisgeHpgz3SBwyAATAABsAAGAADYMAPDEDQQNCgC9aGAT8UUMQBHwowAAbAABgAA2AADDgzAEFj05hFD40zOChYSB8wAAbAABgAA2AADIABPzAAQQNBgx4aGwb8UEARB3wowAAYAANgAAyAATDgzEC0gqZRoxxW1bqcDeswmI0tGcmmlE1gI4qH1pl+5v4mO/1h5QyN9cALtr39d7JrE6/WbcWN2wb+nZJdMSB85w8D0gfpAwbAABiovwzkNmjAXhh/ua7d8eiwoywUus7XbQ8uPHSsnBnZ17E5nWeyc6PO1L2j2M6i45YFTcOihvub7PIAQQNB4+sCGKmA9GjRRSpsp4afCPT7RHpf3K+/H1DkPfIeDIABMOAfBu4dtF9qf4xuV+Pr9gcXHjqCZveAu6R3U8UMBE0KiIeM0HVshtGG7TO6s/Npg9lnaePZ79MmS9sJo5+voU6VCjGUfh07PeJxqdANaN0baZ8C5cyO0UWLatl3331Vt3311SfI7yTld2ZmOivIa8kK8luxjAwD+RAhH5544tE6bonh5547jzSLkGZ29UC01/OyG7F2zStZl/bDWYeW3VjDBg2QBxp58PHH70nsbtp8E9It9CtWXlAstT8ujT3PGmaEfJs2uoKmb9ue0ntZiRm61qKgAD000VZGyX6uMpTLLqcNkcSLKmbo/KTR37dAJzsNvQx/QofRUqF7rOYY0l3j4+RlHiTar40b10kf1t/+9lPkeQLzvKhZBVs07CjbN/c7dmgBk7a9td+w+UMfZK0LipEnFnly+fIzErtXrlxEOlmkk1d1CnE4rGoZWz7yFNs56zOJVZHd/fP+wO6Y8T4b0XUVS0+/AXlikSf040j8kbR16wak0x/Taf+APVI7ZFHFXN+mja6gseqdub3vFlbasiPLy89i12f9om7+DPX2cH+9KrvR+oMhZxaF1yoxs0M3sLfTRkUUMxA0iekOzs7MYM+PuyhVJH1b9vBtRWLFFK65ZwWCxn2aecEZjQ2f3HebbaNQbCDS8ZgeN6MsKt8WCJrEsduvbKY2qyK7u+d8xfqWTgO7CrsQNPbsljRuJ7VDXppwhTXNzvclQ1x4RBpyps6bOTzkXknAqM9zf7341sTiBwSNUnDtEnOVUWISMzTc7KjRh+0wqtjtRmXdNsJo7kuY7d4tiNcndRwnVSJnR55CmmuyHMT85nGGoLH/sPI0isd+4bAjrhuIswbuRZkUyiQETeLYjVbQcHEzpgeGVIn1CASNM7uHB98rtUeWdl7oy7qPCw9VkIjnZAxAHWI2qrgGgkYsEEE/fj1thCRoHjf6s/xQmi+hDXpa68RfnTtTWzoTeSE0nnTSMIhuNtyyVhr6gCFnzh9aL/K4uvMCWzGzZ87XjP5q84aguu/TaSrK5R/LJQRN/FnlvNsJmoPz/zfM67bp77Bds79gdK4yy89LWvcBu39kF4LGmV0yBiCKABo9kp5+ve/40RE0ZKJZfBc67tGmCwQNr1yCvidDAOpcma6hPN/BGvR01o1/RUGJqcA1y26E/KgHgiYrO52NnzCqbhtWMwj5Hsd8b5CZwWiOAW/k8f26cRdZ0/zWdWnfOLcZ2zz5mskdzavBvITvG0Nt2jSv45YY7t6jsi79dOs+uHNuWPL04YKG2F0x6jTrXTKFZTfMtkzvQRW17J7a31my63czvPx9473v2rVcYrdtu1aWaRnvePjVfxoCT0PNRCEwpM0A36WRjqApaJwvvQe9U4fmRRA0foXPbbyKQg1MgiYXvTNJK6zbe2+VCtxD1fcnLS5uWYJ7vQYJ0skf6TSu50ZTQ+/uWZ8ysnCm5lGDzEx2142fmNzXdFlucqs+i3N/5Heq5EOTvOasuFVPbe7ycxpbGrogIxipkiZ4j/iWsTv7bJPaJTQMzW9pHq2gadusNQSN3zIz2vh0C+WbBE20fuG52CoVMoko/gWh47HtR/qu4kA+x5bPSD9/pJ+VdaiWTTrYlrfVo58yCZodMz+wdY989kc+Ix9+xfqXzTKxS1bSkDbxZ7RPqDEbbjQPb4OMAs/TnEbZcP9pTxZrvc7Xvq3Mpo6b5zT2PJxY4g1BYzOcYfqMSYxvZeUdfZVp0WY4WTJrH2po2sYYLU2Cxsodv9YylOEqPWguTo9QI3ajURQ2MEBGBsgIQY3RnFHvUHoMq89mhq6X3qd5SP6zSgWdwllhFLO7jS7sPqMn22xUsNlGW9YhlOXqPaJNdzfP9VQW0iRB0yKnSdTxzG3fluWXldZtGXkNXfuVX9qp7nnyKz0rsh36UMb1rFnf/qxD7RLW+ZY7WI99R1m/4xdYn8NnWNXt97DiBStYQc9eruMipmVOUaEUr1CmbJK0UUUFK111C+u28wHW79j5cNiVm+9mbafOYqEGyV1XpLKqlPXr1yPihmE78Wts0PoyfIgZ3980/pItk+VtBpnc8+dys90N0S3p1C48JIvyV9w6lba3DV9kP5nHOtySG3rHZMYznmE3CF3PRhstwls8w/HS70a5TU38Lo5iKQAaniUyy49btW7q6/xu3CQnYn3L2W7ewtuG+sW0aqmNlefxCBhqY4nTBig8L9khv6x+tvptoU0ImnokaOjPgAh9tMe669Dkh4ywgIgUzm/SxrABRnSN9g6hhqZ3IuFGBXCKUchUYwdqXB4weoVFldeFP1r/llUuknpoaPJdtH7Rc4OfusaGv/J53dZx7lJX/rUcNrLuWe5Px3nWf/UaFOSz9rMWsD4PnWU1L39qeo4/L+4Hnn6RNR8YXeU79PK7Uhgli1eH363FoCFs0NmXpXtimHQ87PnfsNYjx7pKi1jyQX32o4/elSb/i2sgiMcwChA/QTO86wpTA29A+SxLJjIy0sKTrLmAUfeDXKzN0LRZvm3ef/DB25bhq/wk6zyzQZpt3EVu6TgV16Gh781Go7xuwekDRnBM6dMwSpXblaPOuOJt6bIFtvl/7NiDrvxKNMO1c2faxl1l1+t1aFRB47XBpUQIGsov1VjRbb02+SrPIWggaEyCQG30q+c6goa6PCOJCdXfdUYpox4VNxWdlaAhIUV+qf7bnU8w/DMB8OiQw5KgoUWt3KSH6rbXoRNSw77rjoOu/Kt+5g3p+WEvfsQycqxXn67YsF1yq4oIp3PqNVHj7nSekdvAFFbrUeNY2epNput24VLaOIURz3sffviO1scVgiZ+gmZRzSOmBp5oCEDM/6n9dpjcio3D2mr98eT091dtQPFzvwua9IzrbePO34HvU0XQZIVuYOOMVuy0McD0TQmSoCkt7GdieErfO1zVgStWLrbNf78Lmjm1M2zjzpnlewga63p3S49bpPbJM6OfdMWPWKfG41hH0LQsaCq9Axk7aNwoF3No4pEh8fQzUT00fUONTRW/nZhQrx823A1DshI0S42OrsL3i6DJzEiTChoNN5tXPjumCqNszWapgT/g8ee0/WszYZr0LAmDDnMW2T7f75FnTO7txITV9cadO9v6rZYLGs6m+kHD2tRrTuelK5K3OGJQBU1hKDPco0lDRb3aWocytfNd5SCW861TXpMaeAfm/49lPFo16Si5E4UMP94w4Yrls1bxg6CxbixZpVUyr5WGstlWo6KuN0b9VtF5UAQNWeK7deqbJo67d3TXSw1BEx27qdJDQ/N51Tm+frLAqiNouhVWmt6hSeM8CJpkVrbRhE3dklWhPNM232hvEgBW7vi14ghzT86lDTL5dzWthpFwaBdqGF7fhkTPrUZnkzv6SPQK6ZsothI06ofniNEn3GNDc4VGGS3YMqOY0TXuzi+Cpm1+a1NB69/KncBTuSgcM0Fq5A+78qFWw4vmwKhDuoZc/DWj62oY/JyGcXEBQeF02baPtZ02OzxXpkFBI0ZzXHLatGbtZy80+U3P9bjnYVu/eRh8X7J4TV1YPEx1T+KN5uu0mz4nPBSuatteVv3M63XP0dA07l+i94Or+7GJk8aYtqefPi39RfRbDw0vM17uachpotOfwlNN2ZJ1M6t4qA3BWYP2mSxGkXEBq2etrgVZ0ND7WHFL19RhlEHsoaHhyjRU2eobpjJPC0/PNfw/T6ggryVbN/aCScyQxT4rPp2uBVnQULmzY5f3zPA9emishVunJu1NbZQeLbq45siJsVju6QiaSaXyouUk0K7P/gUETSwJ76dnu3to5cyqF4g+Do1D1pOwZxpFdcKCfzBoUU/d9HESNG+njXIUR7TWzlNpg9hQo5l2eLrxisZd12YVpsqC1qSJxi/+TF7HDnUNeN7gtxsyxp+hPYkO7p7vW42wb3iSWBn63HuMhnGFhUK689DBzLwsRgKJ+017EhtiHJyOex48Lj0r+XPhLda40mYNjPTrGM0jojk+mY1ytMNziouX9zZuXAdBYzMM2Mt0Jr+oR4b3sNCe1plRw6juPF9yQ4tsZmQYpvk0++Z+Z3pW9YufB13Q8PdQ90FeWLMilMO2G5WOvTH8+3TC6MfGGi0ZDUVT0yCZ52S0guaA0UamxGcN3MvWj3tW4pfzTgtu0hA0t/ENsqBxetd4L6yZKj001Buj9tDUFEU3B9YpP6K9F0nQXJ/1C/bkqCekd7g09ryjmLku6+eM+xttvLx67kfResQtnNE+Vayc2aWFl4LG6s9WIxsxw+NDVsf4x4LvdXtp7AQN9QjZiSgert/2tFCVWlm0yWvh+qMjvhf1qIiNfTpu0q27o59kxYx6WMTnBp56wfEZMUzdY5o3I4ZBx7rPVl94y/QsPd/ljv0slJmm7Y9ueIlyB0Fj/WcwHunPG3d8v2bM0xI3ZLlMFT0VRYPDbu6Y8b7UUKQGom4cIWgSl8dOeUKWpmYYbZja2OTfIHF/LW04W2Z0ZK1cWvh0Ct/re5zjSHvqmWzfoqs2r2I8IWiiY1dlLKhGARpkGKY2yvSSSVGxJHLl1TEXHiRC1C095wZ2U881pviv6r7M5FZ9lvvrVTyj9QeCRuNvp1eCxmqBTjKVHCnzaAib+PGg422GzR925X3sBM1IIzYhECnO8bg/ueN4U2HLa+jezLIaN7UnpN30Wsc8KVmy1iQWIokgNUyd8yZdu5rC0XmOTC6rQojOB5x8nhkReoZ0/E+mG78LmoNGj/DkaJog7dX2kNHbkcd45AfNKVAbfrTiuhgWnYtulo14vO7+pkkvS/fInfis0zEETXSNQqc0dXOPeubvMrqYvjnqN4iGlJE7WnIgpHx33ISXKLciq3bHtJAssR9tnCBoomM3VQQNcaP+dCXLrNHy5PVzXHh0KaxgI4qHslHFNWx25xlsa++N7MKYc6a4U+9Mg9wQBI3XGZFM/7wSNLR4lPpRoEU7dd7tjDFQevYRo6/Wc1aC5nLakEB8gNR0mV8+x1TgVDfRnPc58qQkAKputbecRtbDaq5+Irnvff8prbxwG7c2E6ZK4ZAFNR0/SFypgobinNWqudbzOmEky43fBU2y0sXrcLMaZpkEiShYOhdVS/f3z/sDy26YXcfX2rHPSPepARnStNCY3yiLXXv1Rcvtttv9ZQbVTbr7ecgZDQ+bY7RlV9KGSd8Z9XtF5zTkmeZVcvP/btIgmW7tRIx6fcvkVxnNq4kmrqPH1FhySzyPGTs8Kj+jiYfXz8Qy5GygURAegkjDEO021eIrrcln55au9xeWsSDLr05u6d5Uo42J60jPkNGLaNKRlpIQRc3G7jdF5U80YUd6hguafYN2S3EU40vHL4y/zGorb2SZuUZEMYMhZwH4myOC4ZWgmWwUmgqVrhlmsu0vflxoyJgYR7tjK0Gz0LBf6dvOHz9cn9lpqqkQUhdvrHHrvOkuSQCQNTI7P8vX3ya5JeGQ07bI1r2VP1ktmjEyoUwT92kIWN+Hz7HB515jZAJa3EjAiMJk0JOvaIVDi3WKz9Gx3do4VvHz8zUImuj+gLrNU6s1OfiQM5ojQ3NlxIZg39JpEpvkVrxPx27jkGru/SxoOodype+L+K2hY2pw0uLLZMUvqPkyb8hhNn/og+Ft+chT7Lapb7G9td+YOCVWac5XUbOKwL6r13kUi6A5nzbYkS2VNd1zWn6C3jMndENc/Kcfv9GkI5k5FgXCmi4rovInmrAjPaMjaDb33sDKW5VoCRk+9Iz7Gyn8eN/HkDMNceWVoFlllEgFz431onkWltZ04LASNGTJTOdZv7kZ1W6YVFFQpeGFScSiyTMlAUDWy6zenRbGVBfEJEFi5dbqGgmf7nseksJShYfTec/9x7TC6r77QVMYZEXNKk5BuwZBkxhBQ1yogoT+XNP1GQN2S/esTDLfNP6y5MbNHJqgMakb3yAKmqNGn7DhmCAMKdPNB9Vd1w6jGFnwU3mnXseGDazXFFP9SPVzPwoaPgfYT4ImlH6dqY1SW3ajb769XHjc0mu9KZ6iCKPjB4fcx0pbdtQSNtzfZJcDCJoEChqaLyP+fXDzB4AWLhOfpeOCUChiQbESNLSoZ7LBiyb83i27mQphceO2Mb8Lre+iCgmrifNVt+2R3JG4IZET6V3IYpmT1TE1bLvzTkvXRQyL4jL4qWtSPONhsCDSO8frPgRN4gQNiRCxkbdj5gesdUGxdI3cNMkzD2Uki2jis3Zr2MSLEz/6G0RBQ98ZWvusxmjOMkP2Jun9mN5u4kTDIa3mfU3rf5dWnesmrCC6haDRq3cbNcw2tVHGtR/lG4a48CBrZkbOdSyUcz0rbNqCDekwkD08VF60nEQN9TZFWoMGQ840RISfCr1XPTTi2i70oaBJw7rvWW00NQmaSOvdkN9WgqZpKF07XN34JcKdpY335lUxvwtZLVNFRH5ZqeQvDRNT3ZSu2ii5sUqD9OwMNvD0VdOz3C8SH32PnmO97z8ZNunc88BxRlu/Y+dNzzTrF5kXK6ttxQtXRoynVdz9eA2CRu/D6kXe0R9qUZTsmfN1eJiOeG1kt9WWbNEaHqI7shzlRZyC7IefBQ2tf0aT/NWfZuI53aeFNMmEc5DzwS7uedmNTOsnQYh/X9/EImhmG23ZeqPUcRM5o2Oy7BrpGW4WvEHo+ohuyYiSGAaNjonkf20Uayi1zW9lEjQDWifeqIsd41zQ8KFi4v6G7F9aWjnb0e/2iL003F+7cBN1HT00GuLKK0GjWo6hCZi6GT3BaC0VSCqcvMvVyQ8rQeO1SUSn8L281yQr11RZjO/gzd8PWiOGiwza04R8Me7ddx+W7tMimSSERDdWx1bChObGtBo+2vF5WuxSjA8dZ+RFtujWqLzc9JwqzqziGZRrfhc01OCj9Tq83Gj+XDLyh3pkRFGiHm+b/o5tvFQxRPMVkvEOfgrTz4KG0qlh6Prw5OqTRn/Tt0ZsDNIxfbtoGHSzgP4cs+OC5tionBfkt6r37MYiaOzSWryeKlbO+rXqaWqjdGrinznLXHiIQkY8NrKvM1k7e27cRQgaEdagH3slaJYbxdKHgv546aYNTeRXPyo6z6aSoKH3vTjmaanC2NrzFu00dEqv/o9elIRAxYbtdf7S3BdVXJDgcPKP7llZG6MeGR1rY6oQspvXo8aBTE6LcaVhcdRro7oL6rnfBY1aRr04dzPXzst8tZrYLzb2Cpt2suQqNyvP1CgULaR5Gccg+eV3QSOmZftQQ3aTUcqIvUgM08gDWgaABJHoRxCPh1QuMrFb1U7PAE8Q31c3zhA0ej3jSzovkNonNGQrPd0/5SKSoCFxM718svQONPSMhI4ofNRj7q8uT/Fyhx6aBPbQkKlL9eNA3aU6masurqnbu5NqgmZbr61SYTstrH2hk452brps2ycJgd6Hf1hzo9ehE9I9skSms54LTeKXxMXVTxiZfbaLA79Oc27E5+i4z+EzEZ+j57vuOCg9SwKK+5sKewgavQ+rF3lN8wdEASMeT+t3py1XNMladEvH43tttnXvRVyD4EeQBA1PT5o3M8Jozo4bfU3fLvVbRj/objcqWVUoL7B5Xd15vondwRXzAvs+PB9j3UPQ6NW7Dww+JLVPDg++11fscOGhChLxvGthZ+kdSNC0LGgKQRNrIfLL81710PQKNTJ9FER76k7vSwYExA8I/RVzcs/vpZqgGdt+hKmwZWXGPieo/eyFkhCovvD9EBmrIVwtBumZc1TNLpPY4PnitKe5OaqgKVutt/7GwNMvSs/SUDmnsIJ2D4JG78PqRb6WtxlkatyRONk1+wvHxQfJPK4qaNyuvH7+/Fn26ae/sdy8eLdk+BFEQSOmU5tQJltjdNLqtaFlBRYZHVjLUEag6p/a6kMmdnuXTNF+h+ycDPbBB29bckv5L6ZnkI4haPTqXVq/hQQA3xaWOy/SnWgGdARNsyaN6+LP36Nts9YQNInOrHiF55WgaRXKkEQJCZR7jZ4RKzmySiaKGTq+1egc8TlKj1QTNC1zCkyFrXvzSq20cOKjaa8+khAgQUG9MDRhXxQX/U9c0grLanK+jpWyxlVdpPB42C2q9eZbqWalO9Qu1oqvU9r46Z7fBc0Ao4AN8ngriXKBt1jzjVZMp0nRqjghoWPnNz1Da3iIz9C5nXu76yRmvvvuK8stPaBDKIMuaHhe0dppQ41mTDVyo36j6PyA0cN13vNwEr3PyEhjO2d9JrFLHLuZQ9O4SY4ls8Tyhx/azzlL9Lu6DQ+CJrKgaZff2tQ26dIsOfMf7fJXR9AUNM43vQcEjcZQLrtE99t1rwQNvRetsqxW/JH+Yu0xupmeoYXQdNIp1QQNvfOp4SekAufFSryZ+dkmIdFmwjTTtUYVeoutkdlnLkb4vuudhxzzjCb9D7n0juk5er5B48j5ndu+renZJl26OIapw5Cf3Phd0PgprbyIy+oxT5kaeE7Dx6x6Z5YMf9Q1gxA0kRtQXuRvrH7Qt4sW3Hw7bZTpG5UsQdM0vzUbWrXE9RoyVgYBSOC4SSMImui4TQWjAIsq5krtkufHXWQZ6Te44scNa9G4haCxESbTZ0xifCsr7+irTIsmo52e8VLQ9LAYdnYtbTij7nyrOJBpQVUA6Q43I/9SUdBM6jhOqjiom9eLikMdIsaFCN+TOWWrPLK7RhP5+bO0p96TnKJCSz/IJDNZThPd82O6bheGeN1KgFmtpyM+E7RjCJroGgzR5nObZuUmQUN/ra0mSvcrm2nptkUUa0VB0CQ2n6Plgz+XHrqODTQK2H1GT+l7lYweGj5UktZIWjHqCVYSwWxu80Zt2MpRZyzZpSFo/B119hA00XGbCoLm3KgzUrtkeeUiV+zo8BWrGwgaCBrmpaAhIK16aciazDKjI+sTaszKQjlsslEYXtBMFTN0rts7Q2GloqDJzswIL/jEx3fSfmDrvjFXHrQAJRcRVvvs1i1dhUET+VV/SDS1v3E+y+vYgVFvT7sZc8PrzqjuxHMa9qZTkVVu3SWFFzZeYFN+dfzzoxsImugaDLHk5bpxFy0be4uGHWW9Syaz0d3XsU2TXrJ0s2zESS121fhB0CQ+n9U8iPacTDkvNjow+lG3w4h9nTC38eCCRhz2uLf2G3br1DcZ8Til7x1sYu9b2aKaRywX0+TP0dpJZLHPTfgQNNFxG3RBU1FQIokZapO0yGniih03nEXrVkfQNGqUY3qX8lYlmEMTbaL77TmvBQ3NiYm0iJmVkKFrtJaNm/RJRUFD70/D8waj6QAAIABJREFUzERBs8vB6pJuenXb+YAkCERRQWJB1x/urqB7D1v/RL/FY3UODN2ruOl2rbD7P3ZZCq/HvqNaz/H4BmEPQRNdgyGWvM3OymG0qCZv6OnuabhOwwaRrfpZxe3zzz+0nYuAOTSJZ8AqjyJdC4V+xXSteEbyy819K0Gjyyx3R707Rc30hheLcWtd2MyWW8yhsed2htGGrTJK6javTYCTf6L/FJ6Yb7Eeb+i2TmqPHBq4z1P/Y40ff15H0Fyf/QvpXcI/jNv1haDhiRj0vdeChtKjKNSAqX8l7EQMvz7LaOu6kKSqoOnYqMhU6Jq4/Jumclm8cJUkCLjQqLn6CSNTyqp7nfOyNZst/eR+i3saokZDz8RrdNyqRm/xUIqn+GzxwpVRxVnnvZLlBoLGvlEQzzyhNWfciBqyhBbNUDN6h6bN8m0bhR9//F5gmU4VowDx5MwLv2MVNLSgbGlhv6g4W7So1pbdJ55wP5fMi/Twwo94GwXwIo7J8oNGjKjWzfq2imzsKRnx1RE0ZML50tjzUvtqYdVcCJpkZFg8wuwUypbGBZPA8CIc+nu1xaiI2FtDwqcilBNVmKkqaCj97+yzTSp067uuiiqNeF6SOWZREPDjksVrYvK3cMwE2/kxFAYJkcotO1l6VjrLKyk2xaFhs8hd1+nZGabnCnr2iinePF38tIegSY6gIQayGjZkS4efYPT3mv/JVvd0jyZXN8iM3lzvkqXzbRuFc2pnBJZpCJrEsJuZmc56FU9kC4cdsbRapjLLz3fP+Yr16TQ1Jr7OnH3ckt1vv/2SUe+Nn+pSN3GBoLFnd27ZLKkd8sjQh3ybz7qC5tiwI9I7kWBr2qSRrajh/rphKh5usbCmD+YYUNc8GQUgU5jLjWK20ShnU4xCRkPTskL+spIRDwij9ZPGqIrDzui4aXa+LyuT9KwQI8FUvGAFK1u7hVXdfg8rXXULazViDEu1ifvR5qfOczt33SE1GL788mNf5rfOuwTVDQ0jG1A+m03tt4MtGX6cLa45Fp6XQEYBYhEyPD3OnXtCymNuvpnW9+Bugri/9uqL0ntduvR0oN8nKHmQn9OEdWk/nNGimRN6bWFzh9zPlo88xWYN2he2hlZRNJg1zvVGbHz22QdSHnN2jx33byNXJx+/+eYL6b1u3hDbTz6dMIPgxqp3pryg2LflmgsPcSFNq+OlXRea2lbUvto3aDe7qecaNr9qDptZMZXdkP3LsMjh/iY7zyBofCBokg1BkMNfUbVEKng0ljXI74O42/8Jo7R57LGj0of13XffQH6nWB1mN39m8pRxgc5rmkPBG7i0P3LkvkC/D+oqua6ymz9DvTM0jDKo6dUwKyRxS+xOnDQmsO/jZT7MU3pn7uh9m6/ThQsPKxEjXmuQG2LPjbsota3Un8d03rKgKQSNl0DBL7lSrW/pYfWHpFl2I19XKvUtj7x83/fff0v6uAZ59W0v0yVV/Cpq21LKXy4A3gm4cC0oyGXUsOXvQ/sNt6xFPZVCYnzNmmVS/vK8Pnz4YKDzecrU8ab36lhcFOh38qK+DGLbQ1fQkLjpVdSNXRhzzlHUQNCkUAXmRaGAH7ELsu7NK9ns0hnhbWbJFNYwI1TvK9tU5GrkyCGmD+sDAW8spGI+xfJO69avNOUxNQxHj6kJdJk+eOge03uNGzci0O8USz6n4rMXLjxpymMaqkWmnIP8vm+++YrpvYL8Pl7FvSArr67dQe2PARHWO/Iq3Fj8cSNoSNTQkLJhHQez2/tsYSeGPxIWODSf5qUJV8Jbi4IC9NDEkiF4NnYBgDREGvqVATLJm9kgTdoqOpewrVs3mP5wU0O3sqo00I0Fv+ZDsuJF80r4n22+pwZVsuLjJlyV3azsdDZgYG927NiDpneiuV9BNT/tJk3qk1vKU84s3x84sDsQ7Kp1Lomw8RNGMXXeF70XesWD235wK2jEYWhOx9zfZJd3zKFBj1EgKtxkFxSEn5hK/MqVi6ZGAW8cqPvz58+C3RSrvyj/aVFNcase0j8Q+fzb336qzS4NT0Kdkpg6JRHpnJ2TITFL/NLw2Ny86NZhSkSceRi9+3TT5pbq4E6l7cFuQOtdLjycxEk097i/nKlk7SFoAgpmsoBBuKnzEfZjXr733ptaH1cyI9q+QyE+rKi/fMOAKrjtzoPS4+TH+gFx8v77M2nSGK06l3g+dGivb8obWHDPAhce0YgWp2e4v8nOEwgaNAhQQYEB3zCgI2heeOFZRpOsk115Inz3H9RUTjM7ASNeP3hwD7hFfesrBnQEDc0Fqp0701fxTuW6JF7vxoWHkziJ5h73N17x1vUXggaVKyopMOAbBu6/fz+7evWyaXv85DF2882rWZ++3X0TV91KFu7qh/B5/vkLJm5pCB2ZZ6bFQmEZqn5wELTy3rNnlYlbqoNprszefTvZjJmTWUHTPNS7KdBO4MIjGtHi9Az3N9nsQ9CkAKTJhgjh40MNBsAAGAADYAAMgAH/MsCFh5M4ieYe9zfZeQ9BA0GDPy9gAAyAATAABsAAGAADKcwAFx7RiBanZ7i/EDQpDE+yMxfh+/dPCfIGeQMGwAAYAANgAAwkigEuPJzESTT3uL+Jeg+7cNBDA0GFPzJgAAyAATAABsAAGAADKcwAFx7RiBanZ7i/dkIjUdchaFIY3kRBhHDwhwkMgAEwAAbAABgAA/5lgAsPJ3ESzT3ub7LzHoIGggZ/ZMAAGAADYAAMgAEwAAZSmAEuPKIRLU7PcH8haFIYnmRnLsL3758S5A3yBgyAATAABsAAGEgUA1x4OImTaO5xfxP1Hnbh1NsemgXlcxg2pAEYAANgAAyAATAABsBAqjNw/5x7WTw3O6GRqOsQNBA2EHZgAAyAATAABsAAGAADKcxAPMUM+Z0o4WIXjieCpnevSta6VV6gttW9FjPaghZvxDdYnCG/kF9gAAyAgcQw8N13XzCrDemfmPRHOiOdk8kABE3AhFgyYUHYqKzAABgAA2DArwxYiRm65tf4Il4oS2DAOwYgaCBoUNmDATAABsAAGAg8AxA03jUO0dBGWgaNAQgafMQC/xELWqFDfPGhAANgAAx4zwAEjfdpCk6RpkFhAIIGggaCBgyAATAABsBA4BmAoEHjOyiNb8TTe1YhaPARC/xHDBWD9xUD0hRpCgbAQNAYgKABs0FjFvH1jlkIGggaCBowAAbAABgAA4FnAILGu8YhGtpIy6AxAEGDj1jgP2JBK3SILz4UYAAMgAHvGYCg8T5NwSnSNCgMQNBA0EDQgAEwAAbAABgIPAMQNGh8B6XxjXh6zyoEDT5igf+IoWLwvmJAmiJNwQAYCBoDEDRgNmjMIr7eMQtBA0EDQQMGwAAYiJqBdsWFbMn5b9iyZ/8Q3pZe+JYVtm4UtX/4wHv3gY81LRec+vCHfL34HevUrcrX+QpB4x92YmUPzyMv3TIAQYOGjK8/UG6Brs/uu3bpyAb07xpxa9e2oN7neWlVHivrmuu8dcEHRac8Td55qq7RS6Jm+oHz9Z4vnXQLgpvxtz8k5e2Nh1/wdd5C0KDOCkK5QhzjwykEDQSNrz9QKPj6Bf/atSvsu+++iridO3ey3uf53a9nsd1vR96Gzsit92nlVAZLe3STGrwkaEqqKjxNs/vu3cO+/vqzuu2FFy566r/T+wXt3iefvC+V/zvv3BJTWrXt2JotvfidlMfdho+Oyc94pikEjf73Ip75AL+RD8lgAIIGgsa3H6dkFIggh6kraM6fP1Pv81xX0NTMzqn3aeVUJmY/fE1q7E6950nP0+vpc6ekRvqv37rmeRhO7xike7/97adSWt19920xp9XYLfdKeTz/1Acx+xmvNIWgQUM6XmzBX/+zBUEDQePbjxMqEHcVCASNfnpB0OinlV057DF6otTQXXbx96y4c6nn9QkEjX5exUPQFLVvwWheFJ8jRftBc1d7ns92nLm5DkGjz4qbdIVbpGsQGICggaDx5YcpCIXHb3GcNnU023DzCtP29dfyX1v00OSx6qm5jHpf1E0dhoYeGvsP+Zyjr0qN3BmHno1LXQJBY58Hah0UD0FDYUy44xEprxec/iguea2+j9tzCBp9VtymLdwjbf3OAAQNBI0vP0x+LzhBit8bb7wkDUOBoLH/MO18U55XA0FjnVbFlWVSA5f+2vcYPSkudQkEjXUeWNVB8RI0Zb16mvK7qnpoXPLb6r10r0HQ6LOim6ZwhzQNCgMQNBA0vvsoBaXwBCWeEDT6HyQIGr20Gr/tiNTAXfL013GrR8hy34YNK+u2WTdOjFtYQSnTdvEcNrQPq62dWrf17FHmWVpRr4w47GzGIf8ZZ4Cg0Su/dvzgOtIvyAxA0EDQePbBC3JBSOW4Q9Dof6QgaCKnFa0xs+T876TG7cQdx1GPpPi3ZOT6nVKe05wpsoLmp7oTgiZy+fVTfiEuyC8vGYCgSfGPkJewwK9gVj4QNPr5BkETOa36TK2VG7bP/oGV9+ntq4Yt6qrI+eg2jdp3amvK92ErYrei5jYeTu4haLzPd6f0xj2kt58YgKCpZ4KmfbumbNLEEWz7to3szJkT7K23XmGvv36VPfXU42z/vrvY9Gljo26Y0MKOS5bMYYcf2MdeeulyeDt79gS77dab2aiRA1mbQnerh/fqWc7Gjqmu22joCS88xR1bsB13bGbPPHOaUYOd3uPUyUfYxltWs1iHWdCwDfL7+PHDjNa8eOed19hrr73ILlw4yx45eh/bsmUdqyhvWxcXHic3e6/TyinseAqaivIitmXzOkbzHF5++blwWlGaHTywMzzspVNJq5jSyem94nEvnoKmvHsuq5mVy+bsyGFrjmWztY9ms9nbc9iwmbTAZ+wfxg7Feax6Wi6be1cOu+VsNlv3WDZbtC+bDZmeywoLv/e/bbs8Vlz+w0bnbtNx8i55IU3qrXHrh5X7Du2bs+7dOkXciDmr5+vLtdJOhXV1olg/Wh1Xdm7naVotPPOpJGpmHX7RM/+p3h1e08+0UV2pm7cQNO7Ls27awh3S1u8MQNDUE0FDDfCrL16SJofbLcL4+WcfsJ07b2MkGnQA7tq1mL399qsR/f722y/Y+nVLtfykcGnyuhjHN998Ofzs/v13s2+//VK6J7qje2vXLtEOh7/jyBEDwo1y0S+n49/85tdszepFrsKJV1rxd7Dax0PQkGi8fPlp2zwQ0+3IkUOu0sjqHRJ1LR6Cpnt1LrvzmmxsQLWmRufbr2axrv3dL+TZpk0eW/5AtuNCoRR+z6G5bMKqHMndHS9luc6bhac/lhq1c46+5toPq/zcvn2jFk/1fR2aVSsXaKUTlUEv1qER82r6gfNS3i95xpu5U2SdUawzxGP6USXGwekYggaNbic+cC+1+YCgqQeCZvWqReFVtsWPhM4x9VBEqgBoAiqt4q3jH3dDf/PbtS2I6LeVoFGvcT+t9tRLECn+/D4JICs/Il379a9f1Q4jnmnF38Nq77WgoV44J0FplWbUy0V/363i56drXguaiWtkAWElZMRru36dxcYs0V/Ms33HPLbpnLOYEf1fdr/sloSOm/SnNUnEieF0TAsvuvHDzi0EjV5jY+WK+dp1ldeCZuiyLab879S9S8z5v2njatt3gqDR48KuXOE60q++MABBk+KC5smzj9l+KKwanuK1EycecvxQUe+E6N7N8bvvvuHoNxVAN+LFKmxqdNPwjEiFefTowa4b6Dw8aqhH8p/uxzutnOLgpaAhcczf3e2e1sPx+xA0LwXNvJ2yeBCFRaTjG2+NLGqoZ4Z6dSL55XTfraCxmj/Ta/x0rTLgxCjdg6DRa3glU9CU9+5tEjTDlm+NOf8haPTyPlIZwn2kY31mAIImhQUNmTe1anRSw/L++/eyRYtmMRpj3btXBaOP5EMPHWRffPFR3TORBA0NTVP9p3UQ9uzZzkgk0NhnashfuXLB5I6eW75sruOH0EnQvP/+W+F5QBTO1Cmj2X337rEUJfSekQr4s88+ZYof+U/D4/hcGRrfT2PUaWiE+D66gibeaeX0jl4JGhqCqC7SSflIPXS7d21jEyfUhIcpUjrdeecWy56706cfjZgfTu8S73teCZpOlXmWQmPzM9ls5PwcVtYlj9GcmlELc9jWi2bhQz01xWXOH+cJK617f+btzGH9x+YymlND+4X7zP5zkeNW0IzacI+pQdu2gzfzpKiskXlmmgcnbjTETKxn6vuQM6qz582dZrmJ6UTHXvfQUPkj62ZiL93knadiLtMQNM5lPd71HvxH+qcCAxA0KSpoyLTqZ5/9RmoI0AeOJrc7TaqloWCPnTgSfs5J0FDDQ/14UqPdbkI+CQvV/Ucfvev4IbQTNOfOnbQ0MGDV00ICLVJB/d3vPpfiRr1HkQwYkFh75JH7GfWARfI/EWnlFAevBA0NQVTz8Nq1K3WiT41DVWUHRmmpPkOTf1W3fjn3StAsOWQWEasfyWbUq6K+a5uiPLb+cbP7+buyTW75szTJn8QIFyZ8b7cQqN3QN7eCZuKdj0qNWWrc8jjFa4+FNc3M2KV1vBbWFMOjeTOioJl53+WYGYCg0c9jMS9wjHQDAz8wAEGTooKGeknUhiRZHtOFf/SoQcxpATurHodIcySsJpEvXz7PNk5WguaTT963dU/vpoZBw86c3pn+dqrpRB9Xp2fc3ktEWjnFyQtB069vlakH7OOP39USfmQMQkxjEkFO8U3mPS8EjVXvzLYXIsxVaZ3HdrwsCxSnXhrq2eEihu9nbnUeprbyiFk0uRU0tJii2Jhdcv6buOclBM0PH+xIZSMRgmbRk59LDNQefzNmBiBo9PM4EgO4j7SsrwxA0KSooPnqq0+kRiQ1KAcP6hHzh4cKCplgFhuodKzTSCVz0epzL774rG2crARNJLFBQzHUMJxMl5JpaNX9+vXLbOPktqJIVFo5xcsLQUO9Ymo6DanupZVOBw7slJ6lYWtO8U3mPS8EzeR1ZrExcbWz2KB3nnaL+bmxS62f2/iUWZyQOWantOs7KtckgtwKGrJoJgqaxeecfxg4xUf3HgSNc76K6ZgIQTP/8fclBsjqnRiHaI4haPTzOJr0xTNI3/rAAARNCgqatkVNpAYkNUSp58IroK0mhi9cMFPLf+phERvGZPrYLl5WgoaG0tm5p+sDB3ST/Kewxo8b5viMarHrvffeYJHCcYqDeC9RaSWGqR57IWjUoWMffviOY5qKcaDeHTHP6djN2hKiX/E+9kLQLLxHFhvU09KuQ+QPasdO5nk3tGaN1TurvTk0ZM3KnXpNHabmVtDMP+l9Y1aNo3oOQROZHZ5miRA0ZlH7lRZ7PI5WexoNQPWU1TZ71kRt/2G2WZ8Vq3zANaRfkBmAoElBQWPVK0ANa69ApQU41QYqLdip4/+zF5+UnqUPsN1zqqDR+bNvJeachrVR2FZDwj7//MPwhNpIw+js4s6vJyqteHhWey8EjdpQovynIWfm7T328cfypopYejZSnli9RyKueSFoaEFLPgyM9rc9F2G4mVAH0bow4rM0TMzqvUkkie50rKKRP+pcHbeCZu6jb0t/52n4kVX8vLwGQaPfyFLLaTyMAsx99NcJZ0CXJwgafVZ00xTukKZBYQCCRmhMBCXTIsXz5pvMi5SRyIn0nO79s2dPSKKE5kjoPnvs2APSs9S4tXtWFTS6vQKq2Iok5rZvc17Qj4bvvfDCRUbiZNy4obbxtXqPRKWVVdj8WqyChgxFqGka6/mhg7tcpSN/l3jvvRA0t12WxcbNp61FidW7kBU0UahsPm9+lqyfiW7o2G5omhrG0ntl/90KmhsfeEFqzHq1sKIaT/Ecgka/QZUIQaMurDrv8fd8U5YhaPRZEcsYjpFuqcAABE0KCpojDx00NUDJ7LBXwNJ8GbFB++WXkS2J8bB37rxNepb86dun0jJuqqB5661XLN1xv/lejBsdRxI09Nzrr181xUv1h5+TwKHF3siMMQ/Tbp+otLILn67HKmjIQAR/d6/29993T8S0c3qneN3zQtDc/bosaJYfNosSu/ivORZZcPSqMc+FGTQ5Vys9Z22T5+m4FTRT9pyRBM3Si99phWv3vjrXIWj0G1uJEDSLz30lMTDroZfizoAOJ+QGgkafFd00hTukaVAYgKBJQUGjNgAiWfpyC+v7778pNXBpiJGuH7S+hNooJmMBVs+rgubNN1+2dKc+q/qvI2jIj7177zRZ8lL9Es9pWNrwmn6OcUpUWqlpIJ7HKmgWL5plyjNqOL3yyvNRbS+//BwjkSTG0S/HXggatfdkwT36gkbtQaH4qGkzYJxZ0PQbqydo5t4Vm6AZu/V+qTFLBgK8mm+mvic/V+uz+r4ODU8Xq30iBM3SC99KDEzbd87EqFXcEnENggaN70RwhjD8yRkETQoKGqs1X0qKvVn8jgoyNUjFhj31WOgW8Hv23CE9S/7YrV2TaEFD70A9WevWLmXPPfcMUxsH4jvzY5p/49SgS1RaOaV/rIKG1o3h78v3+/ffrZ3nTnHz2z0vBI3aQ7PyIX1Bs/bRyD00nXuZBc3wWmvjAWr6zt8d2X/1GfF86NJNUmOWBE1F375xZQGCRr/xoNZZXs+haVdcaMr/cbc+ENf8F/mLdAxBo89KpLTEfaRl0BiAoElBQbNm9SJTA9Tt3A8nkE8/cVzy300PEC3WyRvFfG8XVjIEjRoXWhxyy5Z14Tk0qjU0Hn+nRkOi0kqNt3geq6ChRUb5u/L9448/7JtGjPiusR57IWhuvSQPObvlrL6goTkzYg8PzalR34kW5xTd0PGUm/QEzaqjsv9uh5yV9uhmatAOXbbVFEc1zrGcQ9DoN6ziLWj6TK015X+v8dPjmv9u2IGg0WfFTbrCLdI1CAxA0KSgoBk6pLepAerl2ipWi3bqzCehAqEufOnUu+MHQSMWYupJsppr47RgaaLSSoyneqwKmmhMeFM+cTFD+2j8UOOlc07hUPytNprHpOOHGzeqoBm1QE8oiGGovSwRF9UU6iDVHPMKm94dtRdId1ibanTAraCh91xy/ndSo3b6gQue54OYnhA0+o2peAuaCdsflvJ+2cXfszZFBXHNf5GFSMcQNPqsREpL3EdaBo0BCBqhMRG0zLOLr9Uf9ddefdGzj87yZXOlxi01cGmYll18xOtkQEBsGNMcE/G+eOw3QUNxI7PQNGdIfAcySyzGWzxOVFqJYarHqojUNa4g+vPrX78qvTMNtRPvx+uYTHWLaS0e61q9cxM3VVDQYpdunie383fJvSDUg0KWySL5U1pl7nmhSfxWz6mW1HSEidU6NzrPqeHPevAlqVG78Ky96XX12WjO4yVoqFwQx1ZbNPH0wzPxFjSqyeb5J39jyafbtKChvlSerfKCLEzq+gdBE7me0U1LuENaBo0BCJoUFDQEIU1YFxt/dDxxQo32h8EJZKseIGrwOj1D92prp5ridOWK/d9dPwoaeg+1gfXFF/ZW3hKVVk5p/5Bi9c4pvnb+nD79qCnvyMCDnXuvrida0NzypCxGlt1nHvIV6d0mrJIn3pOgmb7JWpiIfs3ebn5u9CLr5xYfkONJYQya5GwYgIalkTtxi0bQDF+zQxI0NI+mqJ13VhTFNKFjtbx5ZRSAGs9qHcnPnebFqfHz03m8BY1qEGDijuOe1AGlnQpt84LWutJNYwgaNMJ1WYG71GMFgiZFBc2mjWZrYrTaO/Uw6BRkWrl58uSRtm4/+uhd0wdoSHUvW/cU5muvvWh6Zs7sybbPJErQlJe1sY2DVVpROvKGD+3JNLOVO34tEWnFw7LaW7FA+Wvl1u5aj+6lJgtw1NtGvYF2z1hdJ4t2usMT6flECxorK2Nt27mr+KknRF34koRDmyJ7fyiMu16VxQYNf2vXwfqZsq7m3pytz2Yxu7hSDxHFQRQzdByNoCmuLDMJmurFG1xxYMWG3TUIGmsGrNIrnoKm96RZpnzvMnS4J/kOQaOfx1b5jmtIPzCQxyBoUlTQENzvv/+W1PCmxjf97Ro4oJvtR4isoT399BPh52gCv10hWbq01uQ3NT7tzBg/88xpk3un4WYUbiIEzcgRA8Lxor++ZEwh0p/ZO+/cYnqPBx88YJtO9B6JSCu7fKLrA/p3NcWZxEgkAar6ed+9e0z+0HC78eOGOb5/+3ZN2Y47NofZIwZpXpHqt915ogXNyPnmXoybTmXbCgW7eM/bae5BofkrVgKlQ3EeIzGiio1Zt1v3zvAwVx4xh0EGCcg/7ob2JGa2XzX7H62gIT/nHH1VatzOffRtKUwx/FiPIWjk/HRKz3gKmhsfuCLlOS2w6RQXN/cgaPTz2E26wi3StT4xAEGTwoJm9OjBpgYoNSi//faLsGihxvnUKaMZ/a3fvWsbI9EhNiCdBA0VEqueB/KbJmvT2i8zZ4xj+/fdxdQeDYoDbU69M+R/IgQN9ULx+NCe3v/cuZPh9Jg3d1p40U8SaWvXLmEkekS3/DhSgz4RaRWp0rp48axl3Eng0noyZF6ab9u3bbRsqFBvDA1X4+8t7mk+ApnkpmGFtMYMpdfhB/axF65cCPMmur3nnh2W/lu9g8ij6Acdx2MOTevW1o1/6i0hQUILX4pbz6HWw7ysemlIQJCwmLElh9G6Mf3H5bKZW3OYOm+H3FF47Ts6f4yr+pjNN9Oz1DtEcV1yMJttOpdt6i0iN3yLpoeG8snqb33HihLtfFXzetGiWWF+iCF1U+fd0VAx1Y14rruIMIacOfMl5hENKSQDADS8kG/DVtwWdX6LftMxBI1+Xqhph3OkHRj4ngEImhQWNAS51V91tWFodx5J0FDj1c6UsZ2f/Do1niMVwmQIGh4/3f3BAzsjvge9Z7zTKlJaWg0Zs3tHErZ2/pFI/frrzyxFjZ1/6nVfC5pWeax6mrVQ4CJA3NfMshY0lH5kUEB06+Z44hrn3hmeP2SFzY2/ZHFNdB+0sfYfAAAX8klEQVStoKHw1RXjR2/Ya8sNj6/dnn6EqJxEe06m1u3CEa/biXMKN1JPreiPn47j1UNTvfDmOiFDgmbpxe88nTfVtWuxbf5jDg0a7H4qY4iLf3mEoElxQUOFb/KkEZZGAiI1GI4cORSxYTBq5EDbv/Z2/kcaosUrDL8LmmcvPhkxffi70D6eaSWGY3dMPXZWxiLUfHISNOR3Zed27OrVS7YNENU/9ZyGn9nFUb2e8B6aP9YHw27MDfeSiI1/q2MnQUPvMnSmnj/cb+qZGTzFXiSp6UPn/UbrhbFoXzabtEYWQNQ7ZOWnzrXRGw9IjdxFT30RtV/R/hhR2aJzHUFTUV5ky6+T1UKddEmmm3gJmvkn35fyeuo9Z6POa6v0Wb9uqW1+UI+51TNW12AUwL+NTav8wjXkl5cMQNDUA0FDwLRrW8BOnjzKfve7z20/HLxxQBbLli+fp/0RoUneNOQoUqOE/ojOnqU/GZ3iy+NEe2pE68Cv/u11GtpGc4Z27NjCaC0Z3Z4HMntMIlEnLqqbeKWVGo7dOQ3HOfrwfYzeQW388LSOJGi432Sq2+kvN/eP9mTqmsIdNrSPq3RT178R/Xz77ciW9Xhco9mXdcljJAJo+Nbdb8g9G1yARBI0FG5591ymLpjJnxf3NDysU2V0H7jOvXLZ/N3ZbMsF8xAziv+wmd+LpDl3yIJm09PurbjxtKRhSOqaNIPmrXGVv9yvSHWHmO+RjnUEjVMDeuWK+VG9A3+XZO7VMu206K9uPHuOmyaJGRp6FsvwQqtwqc6xylfignpvrJ6xugZBE139YZWWuIa0DBoDEDT1RNCIYNIHf/686Wz//rsZ9cLQpNtDB3eFJ8X361ul/fEQ/aRjGqZB8022bF7HTj9xnD377FPswIGd4eFWNEZade/Hc5r/QeaIKT3IVPFzzz0T3tMYfVpThibYexHvVEgrng406Z+sl9HcmzNnToTFLQ1XpDlaixfNYr16lnuSZjy8oO7JyhnNuRm/IoeR2WUSS2OX5bDu1bmsTRvvPp6FhXmsqm8uI0FGc4LE9KKFOkURtfyB6AUN+TtkyUapsbv4qS+l8MSw/XTMDZ+ojei4zMtK4DdG/ZljNx/OTV6ovTPjbn3A8zy26zk+dcrd4rkQNHJ5d5PPcIu0CzoDEDQJ/NgEHRbEHxUeGAg2A9RbIwoaMkoQa54uPPOJJGpovkWsfsb7eTuDAAsXzPR93O3ShnrhVYFGhk3s3Otc7zV+upS3S575mrVp2zQmP9Vw7ebPUO9MRXlbV2FB0AS7flLZwDny0w0DEDQQNK4+GG7ggltURmDAPwxU9jYbOxheG7ug6Tl2itToXXzO37001EOtNvzpnMzcB5lXEmPqe/XtUxnTO6m9M4MXrI/JP6v03bJlnSne9B7Hjx12HRYEjX/qG6u8xjXkTzwZgKCBoHH90YgnkPAbFR4Y0GeADAiUddUzIkDmpsXeGTJA0KGTflhO+VKz8nY27tbD4Y2Ondwm+x4NKVUb/nTuZn5fst/BKnyaU6a+l5U7N9fGbDpYl6+jNtwTl3yl+ZdqvGnoXDTDlCFovCnPbhiBW6S5XxiAoIGgictHyi+AIx6obFOZAW5sgIaSjVqYw4ramvO7pCKP3XxaFjMkbKZuiL13JohpS9YJ1QZ0vA1MeJVObYuaMHGjRj+ZhH/jjZdM7/TCCxcDUbdbGf7QtYSppisEjbn8q2mEc6RRqjIAQQNBE4iPXqoWQLwXPi6xMMAFjdjzQqaYbzmbzW46lc3ueMnaOhutP+OlIYJY3iHRz1pZ5qMFdhMdD7fhkcESVYg5nXtlwMRtPN24J6uLNJ9J3D744NeMrEG68Ye7haBBfcpZwL7+sQBBA0ET1YcDlUX9qyyQ5/7LcytBI4obq+O7Xs1ivYfrDVNLxTyn3hiyqsUb0W7Xk0pWmpBlSicBI97TWUMsWe8Rz3AhaPxXR8Uzv+E38ltkAIIGggaCBgyAgYAysO6EeSiZlYjh15bem83adcBHUPwIBuVYR9DQ3JNVKxfU2/IMQYOyHZTyjHh6zyoETUAbMigM3hcGpCnSNIgM0HozY5bksBWHsxktzrnthSx29+vfb9SDs+y+bDZlfU54DZwgvh/i/H25HDliAHvlledNG82VeeCBfWzJkjmsoryo3ooZ4gSCBnU46ov6ywAEDQRNvf4AovKrv5Uf8h55DwZSiwEImtTKT5RP5KcbBiBoIGggaMAAGAADYAAMBJ4BCBo0gN00gOE2tXiBoMFHLPAfMVRKqVUpIT+Rn2AADETDAAQNuImGGzyTGtxA0EDQQNCAATAABsAAGAg8AxA0qdEwhcBAPkbDAAQNPmKB/4hFAz6eQYUJBsAAGEgtBiBoUis/UT6Rn24YgKCBoIGgAQNgAAyAATAQeAYgaNAAdtMAhtvU4gWCBh+xwH/EUCmlVqWE/ER+ggEwEA0DEDTgJhpu8ExqcANBA0EDQQMGwAAYAANgIPAMQNCkRsMUAgP5GA0DEDT4iAX+IxYN+HgGFSYYAANgILUYgKBJrfxE+UR+umHAE0FTVt6RGaFfBWq7f869LJFb0NIH8Q0Wz8gv5BcYAANgAAyAATBQXxmAoEmQsKmvgOG9UbmCATAABsAAGAADYAAMxJOBeitoli9fzmi7Luvncd14OPHMRPiNSgIMgAEwAAbAABgAA2CgvjIAQQNBE6ihgvW1oOK98ZECA2AADIABMAAGwIA1AxA0EDQQNAGb/4XKzLoyQ7ogXcAAGAADYAAM1E8GIGggaCBoIGjAABgAA2AADIABMAAGAssABA0ETWDhxV+Y+vkXBvmOfAcDYAAMgAEwAAZEBiBoIGggaPBHBgyAATAABsAAGAADYCCwDEDQQNAEFl5RmeMYf2rAABgAA2AADIABMFA/GYCgUQTN0A6D2JSyCWxCpzGspmM169u2J2tRUMCuz/pFVOadYba5fhYsVKjIdzAABsAAGAADYAAMJIYBCBpF0JwZeZJdm3jVtL0w/jJb0mUBy81v6ErYQNAkBmRUGEhnMAAGwAAYAANgAAzUTwYgaDQFDRc5JGwa5Ia0RQ0ETf0sWKhQke9gAAyAATAABsAAGEgMAxA0iqB5fPhxU+8MFzN8v7r7cggaTJzD3CMwAAbAABgAA2AADIABHzAAQaMImuv+eE69MK2bNmdzOs9kL024YhI5oZzrtUQNemgSo8zxBwTpDAbAABgAA2AADICB+skABI2NoOHChvZkIID3zvB9q4JmEDQ+UOSouOpnxYV8R76DATAABsAAGAADnAEIGg1Bk5GbZhI03dtUQdBA0KCbGQyAATAABsAAGAADYCDJDEDQaAga6qVRh52NKRkBQZNkeLkqxx5/aMAAGAADYAAMgAEwUH8ZgKDRFDQXxpyTemlmVkyFoIGgwR8ZMAAGwAAYAANgAAyAgSQzAEGjKWjOjToDQZNkWPHnpf7+eUHeI+/BABgAA2AADIABOwYgaCBo8FcBQg0MgAEwAAbAABgAA2AgsAxA0EDQBBZeO5WO6/iDAwbAABgAA2AADICB+sMABA0EDQQN/siAATAABsAAGAADYAAMBJYBCJooBU1t5Y0wCoCCH9iCj79W9eevFfIaeQ0GwAAYAAOpzgAEjaageXz4cckowC291kPQQNBA0IABMAAGwAAYAANgAAwkmQEIGk1Bs3vAXZKgeXDIfRA0SYY31f824P3wRw0MgAEwAAbAABgAA5EZgKDRFDRre6yUBM21iVdZu2aFEUXN8uXLGW2AMTKMSCOkERgAA2AADIABMAAGwIBbBiBoNAVNacuOJkFDw9BaFjR1FDUQNCiUbgsl3IMZMAAGwAAYAANgAAzoMwBBoylorsv6OdvaZ6NJ1FBPzV39t7MlXRawMSUj2IjioeGN3NMGQaMPIwou0goMgAEwAAbAABgAA2DALQMQNC4EDQmUwe37s5MjHrUUNiRu+AZBg8LotjDCPZgBA2AADIABMAAGwIB7BiBoXAoaEirNmjRmMyumshfGX64TMFzI8D0EjXsYUYCRZmAADIABMAAGwAAYAANuGYCgcSFo8htls+19b7UVMVzM0B6CBoXRbWGEezADBsAAGAADYAAMgAH3DEDQuBA0R4c9aBIz1EszqXQcI6MBDXJDzMi5LrxB0LiHEQUYaQYGwAAYAANgAAyAATDglgEIGk1BM6TDQJOYeWLEY6xxo9y63hguYsQ9jAKgULotlHAPZsAAGAADYAAMgAEwoM8ABI2moLmp5xqToClvVeIoZkjYQNDow4iCi7QCA2AADIABMAAGwAAYcMsABI2moHlwyH2SoKHhZ2JPjN0xBA0KpdtCCfdgBgyAATAABsAAGAAD+gxA0GgKmnOjzkiC5pZe6yFoQvqgoVAircAAGAADYAAMgAEwAAbiwQAETZSCZnbnGRA0EDQsHoUSfqKyBwNgAAyAATAABsCAPgMQNFEKGlqHxm6YmXgdQ870YUTBRVqBATAABsAAGAADYAAMuGUAggaCBr0M6GkCA2AADIABMAAGwAAYCCwDEDQQNIGF1616h3v88QEDYAAMgAEwAAbAQOoxAEGjKWieG3dRMgowvXwyhpzhTwbEIBgAA2AADIABMAAGwECSGYCg0RQ01yZelQTNxNKxEDRJhhd/WFLvDwvyFHkKBsAAGAADYAAMuGUAgkZD0BQ1ayWJGRI3XQs7Q9BA0OCPDBgAA2AADIABMAAGwECSGYCgiSBoQjnXs90D7jIJmtz8hhA0SYbXrXqHe/zxAQNgAAyAATAABsBA6jEAQaMImlHFNWxO55lsdfflbHu/W9kL4y+bxMyFMee0xAyZb4bZ5tQrNKgIkadgAAyAATAABsAAGPAPAxA0iqA5M/KkScCo82cGte8HQYPeGXQvgwEwAAbAABgAA2AADPiAAQgal4JmbY+V2mIGPTT+Ue74i4K8AANgAAyAATAABsBAajIAQaMImuM1D7OXJlwJb2Sq+clRT7C9A3exuZWzWGHTFq7EDARNahYaVIbIVzAABsAAGAADYAAM+IcBCBpF0JAI8XLDHBr/wI6KB3kBBsAAGAADYAAMgIHUYwCCxmMBo4ohCJrUKzSoCJGnYAAMgAEwAAbAABjwDwMQNBA0mMzmg8lsqBT9UykiL5AXYAAMgAEwAAaCxQAEDQQNBA0EDRgAA2AADIABMAAGwEBgGYCggaAJLLz4exKsvyfIL+QXGAADYAAMgAEwEA8GIGggaCBo8EcGDIABMAAGwAAYAANgILAMQNBA0AQW3ngofPiJP0dgAAyAATAABsAAGAgWAxA0EDQQNPgjAwbAABgAA2AADIABMBBYBiBoIGgCCy/+ngTr7wnyC/kFBsAAGAADYAAMxIMBCBoIGgga/JEBA2AADIABMAAGwAAYCCwDEDQQNIGFNx4KH37izxEYAANgAAyAATAABoLFAAQNBA0EDf7IgAEwAAbAABgAA2AADASWgXovaJYvX84SsUHpB0vpI7+QX2AADIABMAAGwAAYCAYDEDQQNIFV46hkglHJIJ+QT2AADIABMAAGwEA8GYha0MQzUvAb0IMBMAAGwAAYAANgAAyAATCgwwAEDcZLoocGDIABMAAGwAAYAANgAAwElgEIGsAbWHh1FDvc4M8OGAADYAAMgAEwAAZSmwEIGggaCBowAAbAABgAA2AADIABMBBYBiBoAG9g4cXfltT+24L8Rf6CATAABsAAGAADOgxA0EDQQNCAATAABsAAGAADYAAMgIHAMgBBA3gDC6+OYocb/NkBA2AADIABMAAGwEBqMwBBA0EDQQMGwAAYAANgAAyAATAABgLLAAQN4A0svPjbktp/W5C/yF8wAAbAABgAA2BAhwHPBM2G+f/I9m/4Cdu19u/Z5kU/ZUun/TPrVv4zlp6OjNDJCLgBJ2AADIABMAAGwAAYAANgwD0Dngmaby79CWMv/ci0/f/t3c+LVlUcwOGZsfHXTE5JP3BKZ/oL1IjBFpJQGzdli5JaBEK7KGgbSquICDIIMkqLFkYU0hgxZLRwVlaDjYPxCgUtpJ2LCEtEGk/cgQveuSG875zz6jnzLF5eZzXnfu8zL37OvXNnsTMQZo9vDHt2b3MlwNUgBhhggAEGGGCAAQYYiGogedDUkVOFzaNTE1EXr2C7L1gzMzMGGGCAAQYYYICBkgxEC5rLZ4daV2fqmKnff/xyg6BR5AwwwAADDDDAAAMMMBDNQLSgqStv19REeG7feJg5OhKud9q3oO3cMRlt8fX39G6XgQEGGGCAAQYYYICB1WkgetDcCKl6QEB9daZ+3//UuKBR5AwwwAADDDDAAAMMMBDFQNKgeeThyVbQHHrlnigLvzGc/Ht11rjz7rwzwAADDDDAAAMMJA2aCtjy284+eWtM0KhxBhhggAEGGGCAAQYYiGIgedBcO998nPP0kdEoC1fjapwBBhhggAEGGGCAAQaSB83VBUHjB80PGgMMMMAAAwwwwAADaQwIGpf6XDFjgAEGGGCAAQYYYCBbA4IG3mzx2uVIs8thrubKAAMMMMAAAzkZEDSCRtAwwAADDDDAAAMMMJCtgb4HzbfHRrIdVk6laq12VhhggAEGGGCAAQZWg4HkQXP57FDjb9EsfL1O0NgBYIABBhhggAEGGGCAgSgGkgfNxdPDjaC5dGZNlIWvhtp0jHZVGGCAAQYYYIABBhi4uYHkQTN3Yn0jaMKFgXBg/xZRo8gZYIABBhhggAEGGGBgxQaSB83LB+5vBU11G9qzTz6w4sWr1ZvXqvmYDwMMMMAAAwwwwEDpBpIHTTXAzszaVtRUV2p+/344zB7fGD59eyx8+MZdS6/SB+74fKgwwAADDDDAAAMMMBDPQF+Cpjphhw9uDn//3HxAQBU1y19ObryTa5ZmyQADDDDAAAMMMFC6gb4FTTXIfXsfDCc/GA2LnXbI1GFT+sAdnw8VBhhggAEGGGCAAQbiGehL0Dzx2Nbw66n/v+2sDpn63cmNd3LN0iwZYIABBhhggAEGSjfQl6D586c1rVvLqqs0n7+7KVQPDdg1NRG2b39o6VX6wB2fDxUGGGCAAQYYYIABBuIZSB40771+dytm/pkfCnsf3+opZx7TxwADDDDAAAMMMMAAAysykDxo5qfbf4fm1RfvW9GiFW28ojVLs2SAAQYYYIABBhjI2UDyoLl0pnm7WXX7Wc4Ds3Y/8AwwwAADDDDAAAMM3D4GkgfN1YXBxi1n506uEzQuKzLAAAMMMMAAAwwwwEAUA30Pmm8+Go2ycFV8+1Sxc+FcMMAAAwwwwAADDNwqA30PmukjguZWnWzf1wcNAwwwwAADDDDAQGkGBI1Lfa6YMcAAAwwwwAADDDCQrQFBA2+2eEvbXXA8dswYYIABBhhggIHuDSQPmn9/aT4U4Kv37/QfaBHFAAMMMMAAAwwwwAADUQwkD5pwYaDxlLPPDm+KsnD12n29mpmZMcAAAwwwwAADDJRmIGnQvPDMlkbMVHHz2kv3Cho1zgADDDDAAAMMMMAAA1EMJAuanTsmw8XTw62g2bN7W5SFl1aWjsduCQMMMMAAAwwwwAAD3RuIFjTH3hwLM0dHwg9fbAi/fbc2LHaat5pVV2eunR8UM0qcAQYYYIABBhhggAEGohmIFjRX5pu//L/8d2eqr985uDnawtVr9/VqZmbGAAMMMMAAAwwwUJqBvgXN3In1YkaJM8AAAwwwwAADDDDAQFQD0YLmr7mhcL0zsPSqHtV85dxg+GP2jnDq45Hw/NPjURddWlU6HjslDDDAAAMMMMAAAwz0ZiBa0DgBvZ0AczM3BhhggAEGGGCAAQZ6NyBoXPJz9YwBBhhggAEGGGCAgWwNCBp4s8VrJ6P3nQyzMzsGGGCAAQYYKMWAoBE0goYBBhhggAEGGGCAgWwNCBp4s8Vbyq6C47BDxgADDDDAAAMM9G5A0AgaQcMAAwwwwAADDDDAQLYGBA282eK1k9H7TobZmR0DDDDAAAMMlGJA0AgaQcMAAwwwwAADDDDAQLYGBA282eItZVfBcdghY4ABBhhggAEGejcgaASNoGGAAQYYYIABBhhgIFsDggbebPHayeh9J8PszI4BBhhggAEGSjEgaASNoGGAAQYYYIABBhhgIFsDggbebPGWsqvgOOyQMcAAAwwwwAADvRsQNIJG0DDAAAMMMMAAAwwwkK2B/wCDtddlL3AvyAAAAABJRU5ErkJggg==;" vertex="1" parent="IFifXzNAE3G-wkO_UbDk-1">
                    <mxGeometry x="320" y="157.27" width="540" height="205.46" as="geometry"/>
                </mxCell>
                <mxCell id="MlxnGkUc1gx8y1TMcXvj-5" value="0, 0" style="rounded=0;whiteSpace=wrap;html=1;fillColor=#ffffff;align=center;verticalAlign=middle;fontStyle=1" vertex="1" parent="IFifXzNAE3G-wkO_UbDk-1">
                    <mxGeometry x="360" y="400" width="40" height="40" as="geometry"/>
                </mxCell>
                <mxCell id="MlxnGkUc1gx8y1TMcXvj-6" value="0, 1" style="rounded=0;whiteSpace=wrap;html=1;fillColor=#ffffff;align=center;verticalAlign=middle;fontStyle=1" vertex="1" parent="IFifXzNAE3G-wkO_UbDk-1">
                    <mxGeometry x="400" y="400" width="40" height="40" as="geometry"/>
                </mxCell>
                <mxCell id="MlxnGkUc1gx8y1TMcXvj-7" value="0, 2" style="rounded=0;whiteSpace=wrap;html=1;fillColor=#ffffff;align=center;verticalAlign=middle;fontStyle=1" vertex="1" parent="IFifXzNAE3G-wkO_UbDk-1">
                    <mxGeometry x="440" y="400" width="40" height="40" as="geometry"/>
                </mxCell>
                <mxCell id="MlxnGkUc1gx8y1TMcXvj-8" value="1, 0" style="rounded=0;whiteSpace=wrap;html=1;fillColor=#ffffff;align=center;verticalAlign=middle;fontStyle=1" vertex="1" parent="IFifXzNAE3G-wkO_UbDk-1">
                    <mxGeometry x="360" y="440" width="40" height="40" as="geometry"/>
                </mxCell>
                <mxCell id="MlxnGkUc1gx8y1TMcXvj-9" value="1, 1" style="rounded=0;whiteSpace=wrap;html=1;fillColor=#ffffff;align=center;verticalAlign=middle;fontStyle=1" vertex="1" parent="IFifXzNAE3G-wkO_UbDk-1">
                    <mxGeometry x="400" y="440" width="40" height="40" as="geometry"/>
                </mxCell>
                <mxCell id="MlxnGkUc1gx8y1TMcXvj-10" value="1, 2" style="rounded=0;whiteSpace=wrap;html=1;fillColor=#ffffff;align=center;verticalAlign=middle;fontStyle=1" vertex="1" parent="IFifXzNAE3G-wkO_UbDk-1">
                    <mxGeometry x="440" y="440" width="40" height="40" as="geometry"/>
                </mxCell>
                <mxCell id="MlxnGkUc1gx8y1TMcXvj-11" value="2, 0" style="rounded=0;whiteSpace=wrap;html=1;fillColor=#ffffff;align=center;verticalAlign=middle;fontStyle=1" vertex="1" parent="IFifXzNAE3G-wkO_UbDk-1">
                    <mxGeometry x="360" y="480" width="40" height="40" as="geometry"/>
                </mxCell>
                <mxCell id="MlxnGkUc1gx8y1TMcXvj-12" value="2, 1" style="rounded=0;whiteSpace=wrap;html=1;fillColor=#ffffff;align=center;verticalAlign=middle;fontStyle=1" vertex="1" parent="IFifXzNAE3G-wkO_UbDk-1">
                    <mxGeometry x="400" y="480" width="40" height="40" as="geometry"/>
                </mxCell>
                <mxCell id="MlxnGkUc1gx8y1TMcXvj-13" value="2, 2" style="rounded=0;whiteSpace=wrap;html=1;fillColor=#ffffff;align=center;verticalAlign=middle;fontStyle=1" vertex="1" parent="IFifXzNAE3G-wkO_UbDk-1">
                    <mxGeometry x="440" y="480" width="40" height="40" as="geometry"/>
                </mxCell>
            </root>
        </mxGraphModel>
    </diagram>
</mxfile>